<?xml version="1.0" encoding="utf-8"?>
<svg viewBox="473.072 205.137 834.386 539.421" xmlns="http://www.w3.org/2000/svg">
  <defs>
    <marker orient="auto" refY="0.0" refX="0.0" id="Arrow1Mend" style="overflow:visible;">
      <path id="path3821" d="M 0.0,0.0 L 5.0,-5.0 L -12.5,0.0 L 5.0,5.0 L 0.0,0.0 z " style="fill-rule:evenodd;stroke:#000000;stroke-width:1.0pt;marker-start:none;" transform="scale(0.4) rotate(180) translate(10,0)"/>
    </marker>
  </defs>
  <path style="fill-opacity: 1; fill-rule: nonzero; stroke-width: 4; stroke-linecap: round; stroke-linejoin: round; stroke-miterlimit: 4; stroke-opacity: 1; stroke-dasharray: none; stroke-dashoffset: 0; stroke: rgb(0, 0, 0); fill: rgb(231, 217, 200);" id="path2985" d="m 76.771591,97.596855 a 40.406101,40.406101 0 1 1 -80.8122023,0 40.406101,40.406101 0 1 1 80.8122023,0 z" transform="matrix(1, 0, 0, 1, 745.813202, 198.453949)"/>
  <path transform="matrix(1, 0, 0, 1, 745.813202, 299.469208)" d="m 76.771591,97.596855 a 40.406101,40.406101 0 1 1 -80.8122023,0 40.406101,40.406101 0 1 1 80.8122023,0 z" id="path3755" style="fill-opacity: 1; fill-rule: nonzero; stroke-width: 4; stroke-linecap: round; stroke-linejoin: round; stroke-miterlimit: 4; stroke-opacity: 1; stroke-dasharray: none; stroke-dashoffset: 0; stroke: rgb(0, 0, 0); fill: rgb(231, 217, 200);"/>
  <path style="fill-opacity: 1; fill-rule: nonzero; stroke-width: 4; stroke-linecap: round; stroke-linejoin: round; stroke-miterlimit: 4; stroke-opacity: 1; stroke-dasharray: none; stroke-dashoffset: 0; stroke: rgb(0, 0, 0); fill: rgb(231, 217, 200);" id="path3757" d="m 76.771591,97.596855 a 40.406101,40.406101 0 1 1 -80.8122023,0 40.406101,40.406101 0 1 1 80.8122023,0 z" transform="matrix(1, 0, 0, 1, 745.813202, 400.484436)"/>
  <path transform="matrix(1, 0, 0, 1, 745.813202, 533.824585)" d="m 76.771591,97.596855 a 40.406101,40.406101 0 1 1 -80.8122023,0 40.406101,40.406101 0 1 1 80.8122023,0 z" id="path3759" style="fill-opacity: 1; fill-rule: nonzero; stroke-width: 4; stroke-linecap: round; stroke-linejoin: round; stroke-miterlimit: 4; stroke-opacity: 1; stroke-dasharray: none; stroke-dashoffset: 0; stroke: rgb(0, 0, 0); fill: rgb(231, 217, 200);"/>
  <path transform="matrix(1, 0, 0, 1, 481.153244, 147.94632)" d="m 76.771591,97.596855 a 40.406101,40.406101 0 1 1 -80.8122023,0 40.406101,40.406101 0 1 1 80.8122023,0 z" id="path3769" style="fill-opacity: 1; fill-rule: nonzero; stroke-width: 4; stroke-linecap: round; stroke-linejoin: round; stroke-miterlimit: 4; stroke-opacity: 1; stroke-dasharray: none; stroke-dashoffset: 0; stroke: rgb(0, 0, 0); fill: rgb(106, 159, 181);"/>
  <path style="fill-opacity: 1; fill-rule: nonzero; stroke-width: 4; stroke-linecap: round; stroke-linejoin: round; stroke-miterlimit: 4; stroke-opacity: 1; stroke-dasharray: none; stroke-dashoffset: 0; stroke: rgb(0, 0, 0); fill: rgb(106, 159, 181);" id="path3771" d="m 76.771591,97.596855 a 40.406101,40.406101 0 1 1 -80.8122023,0 40.406101,40.406101 0 1 1 80.8122023,0 z" transform="matrix(1, 0, 0, 1, 481.153244, 245.931122)"/>
  <path transform="matrix(1, 0, 0, 1, 481.153244, 343.915894)" d="m 76.771591,97.596855 a 40.406101,40.406101 0 1 1 -80.8122023,0 40.406101,40.406101 0 1 1 80.8122023,0 z" id="path3773" style="fill-opacity: 1; fill-rule: nonzero; stroke-width: 4; stroke-linecap: round; stroke-linejoin: round; stroke-miterlimit: 4; stroke-opacity: 1; stroke-dasharray: none; stroke-dashoffset: 0; stroke: rgb(0, 0, 0); fill: rgb(106, 159, 181);"/>
  <path style="fill-opacity: 1; fill-rule: nonzero; stroke-width: 4; stroke-linecap: round; stroke-linejoin: round; stroke-miterlimit: 4; stroke-opacity: 1; stroke-dasharray: none; stroke-dashoffset: 0; stroke: rgb(0, 0, 0); fill: rgb(106, 159, 181);" id="path3775" d="m 76.771591,97.596855 a 40.406101,40.406101 0 1 1 -80.8122023,0 40.406101,40.406101 0 1 1 80.8122023,0 z" transform="matrix(1, 0, 0, 1, 477.112633, 606.555542)"/>
  <path style="fill-opacity: 1; fill-rule: nonzero; stroke-width: 4; stroke-linecap: round; stroke-linejoin: round; stroke-miterlimit: 4; stroke-opacity: 1; stroke-dasharray: none; stroke-dashoffset: 0; stroke: rgb(0, 0, 0); fill: rgb(230, 184, 197);" id="path3777" d="m 76.771591,97.596855 a 40.406101,40.406101 0 1 1 -80.8122023,0 40.406101,40.406101 0 1 1 80.8122023,0 z" transform="matrix(1, 0, 0, 1, 1230.686432, 150.976776)"/>
  <path transform="matrix(1, 0, 0, 1, 1230.686432, 250.645203)" d="m 76.771591,97.596855 a 40.406101,40.406101 0 1 1 -80.8122023,0 40.406101,40.406101 0 1 1 80.8122023,0 z" id="path3779" style="fill-opacity: 1; fill-rule: nonzero; stroke-width: 4; stroke-linecap: round; stroke-linejoin: round; stroke-miterlimit: 4; stroke-opacity: 1; stroke-dasharray: none; stroke-dashoffset: 0; stroke: rgb(0, 0, 0); fill: rgb(230, 184, 197);"/>
  <path style="fill-opacity: 1; fill-rule: nonzero; stroke-width: 4; stroke-linecap: round; stroke-linejoin: round; stroke-miterlimit: 4; stroke-opacity: 1; stroke-dasharray: none; stroke-dashoffset: 0; stroke: rgb(0, 0, 0); fill: rgb(230, 184, 197);" id="path3781" d="m 76.771591,97.596855 a 40.406101,40.406101 0 1 1 -80.8122023,0 40.406101,40.406101 0 1 1 80.8122023,0 z" transform="matrix(1, 0, 0, 1, 1230.686432, 350.313538)"/>
  <path transform="matrix(1, 0, 0, 1, 1230.686432, 602.514954)" d="m 76.771591,97.596855 a 40.406101,40.406101 0 1 1 -80.8122023,0 40.406101,40.406101 0 1 1 80.8122023,0 z" id="path3783" style="fill-opacity: 1; fill-rule: nonzero; stroke-width: 4; stroke-linecap: round; stroke-linejoin: round; stroke-miterlimit: 4; stroke-opacity: 1; stroke-dasharray: none; stroke-dashoffset: 0; stroke: rgb(0, 0, 0); fill: rgb(230, 184, 197);"/>
  <path transform="matrix(1, 0, 0, 1, 481.153244, 441.900696)" d="m 76.771591,97.596855 a 40.406101,40.406101 0 1 1 -80.8122023,0 40.406101,40.406101 0 1 1 80.8122023,0 z" id="path3785" style="fill-opacity: 1; fill-rule: nonzero; stroke-width: 4; stroke-linecap: round; stroke-linejoin: round; stroke-miterlimit: 4; stroke-opacity: 1; stroke-dasharray: none; stroke-dashoffset: 0; stroke: rgb(0, 0, 0); fill: rgb(106, 159, 181);"/>
  <path style="fill-opacity: 1; fill-rule: nonzero; stroke-width: 4; stroke-linecap: round; stroke-linejoin: round; stroke-miterlimit: 4; stroke-opacity: 1; stroke-dasharray: none; stroke-dashoffset: 0; stroke: rgb(0, 0, 0); fill: rgb(230, 184, 197);" id="path3787" d="m 76.771591,97.596855 a 40.406101,40.406101 0 1 1 -80.8122023,0 40.406101,40.406101 0 1 1 80.8122023,0 z" transform="matrix(1, 0, 0, 1, 1230.686432, 449.981934)"/>
  <path transform="matrix(1, 0, 0, 1, 1002.391937, 194.41333)" d="m 76.771591,97.596855 a 40.406101,40.406101 0 1 1 -80.8122023,0 40.406101,40.406101 0 1 1 80.8122023,0 z" id="path3789" style="fill-opacity: 1; fill-rule: nonzero; stroke-width: 4; stroke-linecap: round; stroke-linejoin: round; stroke-miterlimit: 4; stroke-opacity: 1; stroke-dasharray: none; stroke-dashoffset: 0; stroke: rgb(0, 0, 0); fill: rgb(231, 217, 200);"/>
  <path style="fill-opacity: 1; fill-rule: nonzero; stroke-width: 4; stroke-linecap: round; stroke-linejoin: round; stroke-miterlimit: 4; stroke-opacity: 1; stroke-dasharray: none; stroke-dashoffset: 0; stroke: rgb(0, 0, 0); fill: rgb(231, 217, 200);" id="path3791" d="m 76.771591,97.596855 a 40.406101,40.406101 0 1 1 -80.8122023,0 40.406101,40.406101 0 1 1 80.8122023,0 z" transform="matrix(1, 0, 0, 1, 1002.391937, 295.428589)"/>
  <path transform="matrix(1, 0, 0, 1, 1002.391937, 396.443848)" d="m 76.771591,97.596855 a 40.406101,40.406101 0 1 1 -80.8122023,0 40.406101,40.406101 0 1 1 80.8122023,0 z" id="path3793" style="fill-opacity: 1; fill-rule: nonzero; stroke-width: 4; stroke-linecap: round; stroke-linejoin: round; stroke-miterlimit: 4; stroke-opacity: 1; stroke-dasharray: none; stroke-dashoffset: 0; stroke: rgb(0, 0, 0); fill: rgb(231, 217, 200);"/>
  <path style="fill-opacity: 1; fill-rule: nonzero; stroke-width: 4; stroke-linecap: round; stroke-linejoin: round; stroke-miterlimit: 4; stroke-opacity: 1; stroke-dasharray: none; stroke-dashoffset: 0; stroke: rgb(0, 0, 0); fill: rgb(231, 217, 200);" id="path3795" d="m 76.771591,97.596855 a 40.406101,40.406101 0 1 1 -80.8122023,0 40.406101,40.406101 0 1 1 80.8122023,0 z" transform="matrix(1, 0, 0, 1, 1002.391937, 529.783997)"/>
  <path style="fill: none; stroke-width: 2; stroke-linecap: butt; stroke-linejoin: miter; stroke-opacity: 1; stroke-miterlimit: 4; stroke-dasharray: none; marker-start: none; marker-mid: none; marker-end: url(#Arrow1Mend); stroke: rgb(0, 0, 0);" d="M 152.1494,592.11339 342.82536,540.50186" id="path3797" transform="matrix(1, 0, 0, 1, 400.341034, 101.479309)"/>
  <path style="fill: none; stroke-width: 2; stroke-linecap: butt; stroke-linejoin: miter; stroke-opacity: 1; stroke-miterlimit: 4; stroke-dasharray: none; marker-start: none; marker-mid: none; marker-end: url(#Arrow1Mend); stroke: rgb(0, 0, 0);" d="M 145.20137,578.08247 349.77339,421.19265" id="path3799" transform="matrix(1, 0, 0, 1, 400.341034, 101.479309)"/>
  <path style="fill: none; stroke-width: 2; stroke-linecap: butt; stroke-linejoin: miter; stroke-opacity: 1; stroke-miterlimit: 4; stroke-dasharray: none; marker-start: none; marker-mid: none; marker-end: url(#Arrow1Mend); stroke: rgb(0, 0, 0);" d="M 139.74506,572.26401 355.2297,325.99585" id="path3801" transform="matrix(1, 0, 0, 1, 400.341034, 101.479309)"/>
  <path style="fill: none; stroke-width: 2; stroke-linecap: butt; stroke-linejoin: miter; stroke-opacity: 1; stroke-miterlimit: 4; stroke-dasharray: none; marker-start: none; marker-mid: none; marker-end: url(#Arrow1Mend); stroke: rgb(0, 0, 0);" d="M 135.35969,568.92149 359.61507,228.32312" id="path3805" transform="matrix(1, 0, 0, 1, 400.341034, 101.479309)"/>
  <path style="fill: none; stroke-width: 2; stroke-linecap: butt; stroke-linejoin: miter; stroke-miterlimit: 4; stroke-opacity: 1; stroke-dasharray: none; marker-end: url(#Arrow1Mend); marker-start: none; marker-mid: none; stroke: rgb(0, 0, 0);" d="m 155.35742,451.27915 188.30053,65.40209" id="path3807" transform="matrix(1, 0, 0, 1, 400.341034, 101.479309)"/>
  <path style="fill: none; stroke-width: 2; stroke-linecap: butt; stroke-linejoin: miter; stroke-opacity: 1; stroke-miterlimit: 4; stroke-dasharray: none; marker-start: none; marker-mid: none; marker-end: url(#Arrow1Mend); stroke: rgb(0, 0, 0);" d="m 156.69943,348.48086 185.61651,39.67375" id="path4441" transform="matrix(1, 0, 0, 1, 400.341034, 101.479309)"/>
  <path style="fill: none; stroke-width: 2; stroke-linecap: butt; stroke-linejoin: miter; stroke-opacity: 1; stroke-miterlimit: 4; stroke-dasharray: none; marker-start: none; marker-mid: none; marker-end: url(#Arrow1Mend); stroke: rgb(0, 0, 0);" d="M 157.03203,333.34037 341.98334,302.27984" id="path4443" transform="matrix(1, 0, 0, 1, 400.341034, 101.479309)"/>
  <path style="fill: none; stroke-width: 2; stroke-linecap: butt; stroke-linejoin: miter; stroke-opacity: 1; stroke-miterlimit: 4; stroke-dasharray: none; marker-start: none; marker-mid: none; marker-end: url(#Arrow1Mend); stroke: rgb(0, 0, 0);" d="M 152.59446,320.56777 346.42091,214.03719" id="path4445" transform="matrix(1, 0, 0, 1, 400.341034, 101.479309)"/>
  <path style="fill: none; stroke-width: 2; stroke-linecap: butt; stroke-linejoin: miter; stroke-opacity: 1; stroke-miterlimit: 4; stroke-dasharray: none; marker-start: none; marker-mid: none; marker-end: url(#Arrow1Mend); stroke: rgb(0, 0, 0);" d="M 150.0091,363.59187 349.00627,506.38373" id="path4447" transform="matrix(1, 0, 0, 1, 400.341034, 101.479309)"/>
  <path style="fill: none; stroke-width: 2; stroke-linecap: butt; stroke-linejoin: miter; stroke-opacity: 1; stroke-miterlimit: 4; stroke-dasharray: none; marker-start: none; marker-mid: none; marker-end: url(#Arrow1Mend); stroke: rgb(0, 0, 0);" d="M 157.10368,431.7703 341.91169,402.84996" id="path4451" transform="matrix(1, 0, 0, 1, 400.341034, 101.479309)"/>
  <path style="fill: none; stroke-width: 2; stroke-linecap: butt; stroke-linejoin: miter; stroke-opacity: 1; stroke-miterlimit: 4; stroke-dasharray: none; marker-start: none; marker-mid: none; marker-end: url(#Arrow1Mend); stroke: rgb(0, 0, 0);" d="M 152.76536,418.86612 346.25001,314.73888" id="path4455" transform="matrix(1, 0, 0, 1, 400.341034, 101.479309)"/>
  <path style="fill: none; stroke-width: 2; stroke-linecap: butt; stroke-linejoin: miter; stroke-opacity: 1; stroke-miterlimit: 4; stroke-dasharray: none; marker-start: none; marker-mid: none; marker-end: url(#Arrow1Mend); stroke: rgb(0, 0, 0);" d="M 146.91623,410.66335 352.09914,221.9264" id="path4459" transform="matrix(1, 0, 0, 1, 400.341034, 101.479309)"/>
  <path style="fill: none; stroke-width: 2; stroke-linecap: butt; stroke-linejoin: miter; stroke-opacity: 1; stroke-miterlimit: 4; stroke-dasharray: none; marker-start: none; marker-mid: none; marker-end: url(#Arrow1Mend); stroke: rgb(0, 0, 0);" d="M 144.52376,271.79532 354.49161,500.19547" id="path4461" transform="matrix(1, 0, 0, 1, 400.341034, 101.479309)"/>
  <path style="fill: none; stroke-width: 2; stroke-linecap: butt; stroke-linejoin: miter; stroke-opacity: 1; stroke-miterlimit: 4; stroke-dasharray: none; marker-start: none; marker-mid: none; marker-end: url(#Arrow1Mend); stroke: rgb(0, 0, 0);" d="m 152.07562,262.42798 194.86413,113.7947" id="path4463" transform="matrix(1, 0, 0, 1, 400.341034, 101.479309)"/>
  <path style="fill: none; stroke-width: 2; stroke-linecap: butt; stroke-linejoin: miter; stroke-opacity: 1; stroke-miterlimit: 4; stroke-dasharray: none; marker-start: none; marker-mid: none; marker-end: url(#Arrow1Mend); stroke: rgb(0, 0, 0);" d="m 156.78931,250.06169 185.43675,37.51202" id="path4465" transform="matrix(1, 0, 0, 1, 400.341034, 101.479309)"/>
  <path style="fill: none; stroke-width: 2; stroke-linecap: butt; stroke-linejoin: miter; stroke-opacity: 1; stroke-miterlimit: 4; stroke-dasharray: none; marker-start: none; marker-mid: none; marker-end: url(#Arrow1Mend); stroke: rgb(0, 0, 0);" d="M 156.9557,234.91291 342.05967,201.70724" id="path4467" transform="matrix(1, 0, 0, 1, 400.341034, 101.479309)"/>
  <path style="fill: none; stroke-width: 2; stroke-linecap: butt; stroke-linejoin: miter; stroke-opacity: 1; stroke-miterlimit: 4; stroke-dasharray: none; marker-start: none; marker-mid: none; marker-end: url(#Arrow1Mend); stroke: rgb(0, 0, 0);" d="M 156.87476,151.63964 342.1406,186.99572" id="path4469" transform="matrix(1, 0, 0, 1, 400.341034, 101.479309)"/>
  <path style="fill: none; stroke-width: 2; stroke-linecap: butt; stroke-linejoin: miter; stroke-opacity: 1; stroke-miterlimit: 4; stroke-dasharray: none; marker-start: none; marker-mid: none; marker-end: url(#Arrow1Mend); stroke: rgb(0, 0, 0);" d="M 152.24949,164.14314 346.76588,275.50747" id="path4473" transform="matrix(1, 0, 0, 1, 400.341034, 101.479309)"/>
  <path style="fill: none; stroke-width: 2; stroke-linecap: butt; stroke-linejoin: miter; stroke-opacity: 1; stroke-miterlimit: 4; stroke-dasharray: none; marker-start: none; marker-mid: none; marker-end: url(#Arrow1Mend); stroke: rgb(0, 0, 0);" d="M 146.41079,171.95804 352.60458,368.70783" id="path4475" transform="matrix(1, 0, 0, 1, 400.341034, 101.479309)"/>
  <path style="fill: none; stroke-width: 2; stroke-linecap: butt; stroke-linejoin: miter; stroke-opacity: 1; stroke-miterlimit: 4; stroke-dasharray: none; marker-start: none; marker-mid: none; marker-end: url(#Arrow1Mend); stroke: rgb(0, 0, 0);" d="m 140.03403,177.38875 218.94731,319.2285" id="path4477" transform="matrix(1, 0, 0, 1, 400.341034, 101.479309)"/>
  <path style="fill: none; stroke-width: 2; stroke-linecap: butt; stroke-linejoin: miter; stroke-opacity: 1; stroke-miterlimit: 4; stroke-dasharray: none; marker-end: url(#Arrow1Mend); stroke: rgb(0, 0, 0);" d="m 422.23886,193.93526 175.77636,-2.76814" id="path4479" transform="matrix(1, 0, 0, 1, 400.341034, 101.479309)"/>
  <path style="fill: none; stroke-width: 2; stroke-linecap: butt; stroke-linejoin: miter; stroke-opacity: 1; stroke-miterlimit: 4; stroke-dasharray: none; marker-end: url(#Arrow1Mend); stroke: rgb(0, 0, 0);" d="m 419.64449,208.86069 180.9651,68.39625" id="path4481" transform="matrix(1, 0, 0, 1, 400.341034, 101.479309)"/>
  <path style="fill: none; stroke-width: 2; stroke-linecap: butt; stroke-linejoin: miter; stroke-opacity: 1; stroke-miterlimit: 4; stroke-dasharray: none; marker-end: url(#Arrow1Mend); stroke: rgb(0, 0, 0);" d="M 413.82857,219.25739 606.42551,367.8755" id="path4483" transform="matrix(1, 0, 0, 1, 400.341034, 101.479309)"/>
  <path style="fill: none; stroke-width: 2; stroke-linecap: butt; stroke-linejoin: miter; stroke-opacity: 1; stroke-miterlimit: 4; stroke-dasharray: none; marker-end: url(#Arrow1Mend); stroke: rgb(0, 0, 0);" d="M 406.5783,226.52002 613.67578,493.953" id="path4485" transform="matrix(1, 0, 0, 1, 400.341034, 101.479309)"/>
  <path style="fill: none; stroke-width: 2; stroke-linecap: butt; stroke-linejoin: miter; stroke-opacity: 1; stroke-miterlimit: 4; stroke-dasharray: none; marker-end: url(#Arrow1Mend); stroke: rgb(0, 0, 0);" d="M 419.24056,280.27217 601.01352,205.84546" id="path4487" transform="matrix(1, 0, 0, 1, 400.341034, 101.479309)"/>
  <path style="fill: none; stroke-width: 2; stroke-linecap: butt; stroke-linejoin: miter; stroke-opacity: 1; stroke-miterlimit: 4; stroke-dasharray: none; marker-end: url(#Arrow1Mend); stroke: rgb(0, 0, 0);" d="m 422.23886,294.95051 175.77636,-2.76814" id="path4489" transform="matrix(1, 0, 0, 1, 400.341034, 101.479309)"/>
  <path style="fill: none; stroke-width: 2; stroke-linecap: butt; stroke-linejoin: miter; stroke-opacity: 1; stroke-miterlimit: 4; stroke-dasharray: none; marker-end: url(#Arrow1Mend); stroke: rgb(0, 0, 0);" d="m 419.64449,309.87594 180.9651,68.39626" id="path4491" transform="matrix(1, 0, 0, 1, 400.341034, 101.479309)"/>
  <path style="fill: none; stroke-width: 2; stroke-linecap: butt; stroke-linejoin: miter; stroke-opacity: 1; stroke-miterlimit: 4; stroke-dasharray: none; marker-end: url(#Arrow1Mend); stroke: rgb(0, 0, 0);" d="M 411.90685,322.57798 608.34723,498.91029" id="path4493" transform="matrix(1, 0, 0, 1, 400.341034, 101.479309)"/>
  <path style="fill: none; stroke-width: 2; stroke-linecap: butt; stroke-linejoin: miter; stroke-opacity: 1; stroke-miterlimit: 4; stroke-dasharray: none; marker-end: url(#Arrow1Mend); stroke: rgb(0, 0, 0);" d="M 413.34219,371.29916 606.91189,215.83373" id="path4495" transform="matrix(1, 0, 0, 1, 400.341034, 101.479309)"/>
  <path style="fill: none; stroke-width: 2; stroke-linecap: butt; stroke-linejoin: miter; stroke-opacity: 1; stroke-miterlimit: 4; stroke-dasharray: none; marker-end: url(#Arrow1Mend); stroke: rgb(0, 0, 0);" d="M 419.24056,381.28743 601.01352,306.86071" id="path4497" transform="matrix(1, 0, 0, 1, 400.341034, 101.479309)"/>
  <path style="fill: none; stroke-width: 2; stroke-linecap: butt; stroke-linejoin: miter; stroke-opacity: 1; stroke-miterlimit: 4; stroke-dasharray: none; marker-end: url(#Arrow1Mend); stroke: rgb(0, 0, 0);" d="m 422.23886,395.96577 175.77636,-2.76814" id="path4499" transform="matrix(1, 0, 0, 1, 400.341034, 101.479309)"/>
  <path style="fill: none; stroke-width: 2; stroke-linecap: butt; stroke-linejoin: miter; stroke-opacity: 1; stroke-miterlimit: 4; stroke-dasharray: none; marker-end: url(#Arrow1Mend); stroke: rgb(0, 0, 0);" d="m 417.92879,414.78965 184.3965,92.92423" id="path4501" transform="matrix(1, 0, 0, 1, 400.341034, 101.479309)"/>
  <path style="fill: none; stroke-width: 2; stroke-linecap: butt; stroke-linejoin: miter; stroke-opacity: 1; stroke-miterlimit: 4; stroke-dasharray: none; marker-end: url(#Arrow1Mend); stroke: rgb(0, 0, 0);" d="M 417.46598,510.86556 602.7881,411.63797" id="path4503" transform="matrix(1, 0, 0, 1, 400.341034, 101.479309)"/>
  <path style="fill: none; stroke-width: 2; stroke-linecap: butt; stroke-linejoin: miter; stroke-opacity: 1; stroke-miterlimit: 4; stroke-dasharray: none; marker-end: url(#Arrow1Mend); stroke: rgb(0, 0, 0);" d="m 422.23886,529.3059 175.77636,-2.76814" id="path4505" transform="matrix(1, 0, 0, 1, 400.341034, 101.479309)"/>
  <path style="fill: none; stroke-width: 2; stroke-linecap: butt; stroke-linejoin: miter; stroke-opacity: 1; stroke-miterlimit: 4; stroke-dasharray: none; marker-end: url(#Arrow1Mend); stroke: rgb(0, 0, 0);" d="M 411.43882,502.4387 608.81526,319.04957" id="path4507" transform="matrix(1, 0, 0, 1, 400.341034, 101.479309)"/>
  <path style="fill: none; stroke-width: 2; stroke-linecap: butt; stroke-linejoin: miter; stroke-opacity: 1; stroke-miterlimit: 4; stroke-dasharray: none; marker-end: url(#Arrow1Mend); stroke: rgb(0, 0, 0);" d="M 406.2053,497.70779 614.04878,222.76523" id="path4509" transform="matrix(1, 0, 0, 1, 400.341034, 101.479309)"/>
  <path style="fill: none; stroke-width: 2; stroke-linecap: butt; stroke-linejoin: miter; stroke-opacity: 1; stroke-miterlimit: 4; stroke-dasharray: none; marker-end: url(#Arrow1Mend); stroke: rgb(0, 0, 0);" d="M 678.11764,182.97711 827.00966,154.6481" id="path4511" transform="matrix(1, 0, 0, 1, 400.341034, 101.479309)"/>
  <path style="fill: none; stroke-width: 2; stroke-linecap: butt; stroke-linejoin: miter; stroke-opacity: 1; stroke-miterlimit: 4; stroke-dasharray: none; marker-end: url(#Arrow1Mend); stroke: rgb(0, 0, 0);" d="m 677.65905,200.19685 149.8092,36.89993" id="path4513" transform="matrix(1, 0, 0, 1, 400.341034, 101.479309)"/>
  <path style="fill: none; stroke-width: 2; stroke-linecap: butt; stroke-linejoin: miter; stroke-opacity: 1; stroke-miterlimit: 4; stroke-dasharray: none; marker-end: url(#Arrow1Mend); stroke: rgb(0, 0, 0);" d="M 671.78756,213.31974 833.33974,323.64222" id="path4515" transform="matrix(1, 0, 0, 1, 400.341034, 101.479309)"/>
  <path style="fill: none; stroke-width: 2; stroke-linecap: butt; stroke-linejoin: miter; stroke-opacity: 1; stroke-miterlimit: 4; stroke-dasharray: none; marker-end: url(#Arrow1Mend); stroke: rgb(0, 0, 0);" d="M 665.33487,220.66527 839.79243,415.9651" id="path4517" transform="matrix(1, 0, 0, 1, 400.341034, 101.479309)"/>
  <path style="fill: none; stroke-width: 2; stroke-linecap: butt; stroke-linejoin: miter; stroke-opacity: 1; stroke-miterlimit: 4; stroke-dasharray: none; marker-end: url(#Arrow1Mend); stroke: rgb(0, 0, 0);" d="m 658.14655,225.80069 188.8342,337.56202" id="path4519" transform="matrix(1, 0, 0, 1, 400.341034, 101.479309)"/>
  <path style="fill: none; stroke-width: 2; stroke-linecap: butt; stroke-linejoin: miter; stroke-opacity: 1; stroke-miterlimit: 4; stroke-dasharray: none; marker-end: url(#Arrow1Mend); stroke: rgb(0, 0, 0);" d="M 672.56573,269.93838 832.56157,168.70208" id="path4521" transform="matrix(1, 0, 0, 1, 400.341034, 101.479309)"/>
  <path style="fill: none; stroke-width: 2; stroke-linecap: butt; stroke-linejoin: miter; stroke-opacity: 1; stroke-miterlimit: 4; stroke-dasharray: none; marker-end: url(#Arrow1Mend); stroke: rgb(0, 0, 0);" d="M 678.07429,283.76665 827.05301,254.54223" id="path4523" transform="matrix(1, 0, 0, 1, 400.341034, 101.479309)"/>
  <path style="fill: none; stroke-width: 2; stroke-linecap: butt; stroke-linejoin: miter; stroke-opacity: 1; stroke-miterlimit: 4; stroke-dasharray: none; marker-end: url(#Arrow1Mend); stroke: rgb(0, 0, 0);" d="m 677.71211,300.99333 149.70308,35.99055" id="path4525" transform="matrix(1, 0, 0, 1, 400.341034, 101.479309)"/>
  <path style="fill: none; stroke-width: 2; stroke-linecap: butt; stroke-linejoin: miter; stroke-opacity: 1; stroke-miterlimit: 4; stroke-dasharray: none; marker-end: url(#Arrow1Mend); stroke: rgb(0, 0, 0);" d="m 671.87935,314.20025 161.3686,109.24512" id="path4527" transform="matrix(1, 0, 0, 1, 400.341034, 101.479309)"/>
  <path style="fill: none; stroke-width: 2; stroke-linecap: butt; stroke-linejoin: miter; stroke-opacity: 1; stroke-miterlimit: 4; stroke-dasharray: none; marker-end: url(#Arrow1Mend); stroke: rgb(0, 0, 0);" d="M 662.52481,323.97513 842.60249,566.20352" id="path4529" transform="matrix(1, 0, 0, 1, 400.341034, 101.479309)"/>
  <path style="fill: none; stroke-width: 2; stroke-linecap: butt; stroke-linejoin: miter; stroke-opacity: 1; stroke-miterlimit: 4; stroke-dasharray: none; marker-end: url(#Arrow1Mend); stroke: rgb(0, 0, 0);" d="M 665.93424,362.97364 839.19306,176.68208" id="path4531" transform="matrix(1, 0, 0, 1, 400.341034, 101.479309)"/>
  <path style="fill: none; stroke-width: 2; stroke-linecap: butt; stroke-linejoin: miter; stroke-opacity: 1; stroke-miterlimit: 4; stroke-dasharray: none; marker-end: url(#Arrow1Mend); stroke: rgb(0, 0, 0);" d="M 672.47451,370.81043 832.65279,268.51371" id="path4533" transform="matrix(1, 0, 0, 1, 400.341034, 101.479309)"/>
  <path style="fill: none; stroke-width: 2; stroke-linecap: butt; stroke-linejoin: miter; stroke-opacity: 1; stroke-miterlimit: 4; stroke-dasharray: none; marker-end: url(#Arrow1Mend); stroke: rgb(0, 0, 0);" d="M 678.02974,384.55693 827.09756,354.43554" id="path4535" transform="matrix(1, 0, 0, 1, 400.341034, 101.479309)"/>
  <path style="fill: none; stroke-width: 2; stroke-linecap: butt; stroke-linejoin: miter; stroke-opacity: 1; stroke-miterlimit: 4; stroke-dasharray: none; marker-end: url(#Arrow1Mend); stroke: rgb(0, 0, 0);" d="m 677.76407,401.78894 149.59916,35.083" id="path4537" transform="matrix(1, 0, 0, 1, 400.341034, 101.479309)"/>
  <path style="fill: none; stroke-width: 2; stroke-linecap: butt; stroke-linejoin: miter; stroke-opacity: 1; stroke-miterlimit: 4; stroke-dasharray: none; marker-end: url(#Arrow1Mend); stroke: rgb(0, 0, 0);" d="M 668.41064,419.63584 836.71666,571.55807" id="path4539" transform="matrix(1, 0, 0, 1, 400.341034, 101.479309)"/>
  <path style="fill: none; stroke-width: 2; stroke-linecap: butt; stroke-linejoin: miter; stroke-opacity: 1; stroke-miterlimit: 4; stroke-dasharray: none; marker-end: url(#Arrow1Mend); stroke: rgb(0, 0, 0);" d="m 676.92629,538.17016 151.27472,48.19372" id="path4541" transform="matrix(1, 0, 0, 1, 400.341034, 101.479309)"/>
  <path style="fill: none; stroke-width: 2; stroke-linecap: butt; stroke-linejoin: miter; stroke-opacity: 1; stroke-miterlimit: 4; stroke-dasharray: none; marker-end: url(#Arrow1Mend); stroke: rgb(0, 0, 0);" d="M 676.5697,512.56476 828.5576,459.43625" id="path4543" transform="matrix(1, 0, 0, 1, 400.341034, 101.479309)"/>
  <path style="fill: none; stroke-width: 2; stroke-linecap: butt; stroke-linejoin: miter; stroke-opacity: 1; stroke-miterlimit: 4; stroke-dasharray: none; marker-end: url(#Arrow1Mend); stroke: rgb(0, 0, 0);" d="M 670.1833,500.92843 834.944,371.40417" id="path4545" transform="matrix(1, 0, 0, 1, 400.341034, 101.479309)"/>
  <path style="fill: none; stroke-width: 2; stroke-linecap: butt; stroke-linejoin: miter; stroke-opacity: 1; stroke-miterlimit: 4; stroke-dasharray: none; marker-end: url(#Arrow1Mend); stroke: rgb(0, 0, 0);" d="M 663.99769,494.62295 841.12961,278.04132" id="path4547" transform="matrix(1, 0, 0, 1, 400.341034, 101.479309)"/>
  <path style="fill: none; stroke-width: 2; stroke-linecap: butt; stroke-linejoin: miter; stroke-opacity: 1; stroke-miterlimit: 4; stroke-dasharray: none; marker-end: url(#Arrow1Mend); stroke: rgb(0, 0, 0);" d="M 659.2761,491.28921 845.8512,181.70664" id="path4549" transform="matrix(1, 0, 0, 1, 400.341034, 101.479309)"/>
  <text id="text6054" style="font-family: &quot;Bitstream Vera Sans&quot;; font-size: 40px; line-height: 50px; stroke: rgb(0, 0, 0); white-space: pre;" x="98.1054" y="831.094" transform="matrix(1, 0, 0, 1, 400.341034, -206.788391)">...</text>
  <text id="text6058" style="font-family: &quot;Bitstream Vera Sans&quot;; font-size: 40px; line-height: 50px; stroke: rgb(0, 0, 0); white-space: pre;" x="362.765" y="774.02" transform="matrix(1, 0, 0, 1, 400.341034, -206.788391)">...</text>
  <text id="text6062" style="font-family: &quot;Bitstream Vera Sans&quot;; font-size: 40px; line-height: 50px; stroke: rgb(0, 0, 0); white-space: pre;" x="619.344" y="769.98" transform="matrix(1, 0, 0, 1, 400.341034, -206.788391)">...</text>
  <text id="text6066" style="font-family: &quot;Bitstream Vera Sans&quot;; font-size: 40px; line-height: 50px; stroke: rgb(0, 0, 0); white-space: pre;" x="847.639" y="833.114" transform="matrix(1, 0, 0, 1, 400.341034, -206.788391)">...</text>
</svg>