<?xml version="1.0" encoding="utf-8"?>
<svg viewBox="189.937 140.497 90 100.92" xmlns="http://www.w3.org/2000/svg">
  <defs>
    <filter id="a" width="111.7%" height="111.7%" x="-5.8%" y="-4.2%" filterUnits="objectBoundingBox">
      <feOffset dy=".5" in="SourceAlpha" result="shadowOffsetOuter1"/>
      <feGaussianBlur in="shadowOffsetOuter1" result="shadowBlurOuter1" stdDeviation=".5"/>
      <feComposite in="shadowBlurOuter1" in2="SourceAlpha" operator="out" result="shadowBlurOuter1"/>
      <feColorMatrix in="shadowBlurOuter1" values="0 0 0 0 0 0 0 0 0 0 0 0 0 0 0 0 0 0 0.199473505 0"/>
    </filter>
    <linearGradient id="c" x1="50%" x2="50%" y1="0%" y2="100%">
      <stop offset="0" stop-color="#FFF" stop-opacity=".5"/>
      <stop offset="1" stop-opacity=".5"/>
    </linearGradient>
    <filter id="d" width="123.2%" height="117.5%" x="-11.6%" y="-6.3%" filterUnits="objectBoundingBox">
      <feOffset dy=".5" in="SourceAlpha" result="shadowOffsetOuter1"/>
      <feGaussianBlur in="shadowOffsetOuter1" result="shadowBlurOuter1" stdDeviation=".5"/>
      <feColorMatrix in="shadowBlurOuter1" values="0 0 0 0 0 0 0 0 0 0 0 0 0 0 0 0 0 0 0.204257246 0"/>
    </filter>
    <linearGradient id="gradient-1" x1="50%" x2="50%" y1="0%" y2="100%">
      <stop offset="0" stop-color="#FFF" stop-opacity=".5"/>
      <stop offset="1" stop-opacity=".5"/>
    </linearGradient>
    <filter id="filter-1" width="123.3%" height="114.6%" x="-11.7%" y="-5.2%" filterUnits="objectBoundingBox">
      <feOffset dy=".5" in="SourceAlpha" result="shadowOffsetOuter1"/>
      <feGaussianBlur in="shadowOffsetOuter1" result="shadowBlurOuter1" stdDeviation=".5"/>
      <feComposite in="shadowBlurOuter1" in2="SourceAlpha" operator="out" result="shadowBlurOuter1"/>
      <feColorMatrix in="shadowBlurOuter1" values="0 0 0 0 0 0 0 0 0 0 0 0 0 0 0 0 0 0 0.204257246 0"/>
    </filter>
    <linearGradient id="gradient-2" x1="50%" x2="50%" y1="0%" y2="100%">
      <stop offset="0" stop-color="#FFF" stop-opacity=".5"/>
      <stop offset="1" stop-opacity=".5"/>
    </linearGradient>
    <filter id="filter-2" width="118.1%" height="119.7%" x="-9.1%" y="-7%" filterUnits="objectBoundingBox">
      <feOffset dy=".5" in="SourceAlpha" result="shadowOffsetOuter1"/>
      <feGaussianBlur in="shadowOffsetOuter1" result="shadowBlurOuter1" stdDeviation=".5"/>
      <feColorMatrix in="shadowBlurOuter1" values="0 0 0 0 0 0 0 0 0 0 0 0 0 0 0 0 0 0 0.204257246 0"/>
    </filter>
    <linearGradient id="gradient-3" x1="50%" x2="50%" y1="0%" y2="100%">
      <stop offset="0" stop-color="#FFF" stop-opacity=".5"/>
      <stop offset="1" stop-opacity=".5"/>
    </linearGradient>
    <filter id="filter-3" width="117.5%" height="117.5%" x="-8.8%" y="-6.2%" filterUnits="objectBoundingBox">
      <feOffset dy=".5" in="SourceAlpha" result="shadowOffsetOuter1"/>
      <feGaussianBlur in="shadowOffsetOuter1" result="shadowBlurOuter1" stdDeviation=".5"/>
      <feColorMatrix in="shadowBlurOuter1" values="0 0 0 0 0 0 0 0 0 0 0 0 0 0 0 0 0 0 0.204257246 0"/>
    </filter>
    <linearGradient x1="50%" y1="0%" x2="50%" y2="100%" id="gradient-4">
      <stop stop-color="#FFF" stop-opacity=".5" offset="0"/>
      <stop stop-opacity=".5" offset="1"/>
    </linearGradient>
    <filter x="-7.5%" y="-6%" width="115.5%" height="117.2%" filterUnits="objectBoundingBox" id="filter-4">
      <feOffset dy=".5" in="SourceAlpha" result="shadowOffsetOuter1"/>
      <feGaussianBlur stdDeviation=".5" in="shadowOffsetOuter1" result="shadowBlurOuter1"/>
      <feColorMatrix values="0 0 0 0 0 0 0 0 0 0 0 0 0 0 0 0 0 0 0.204257246 0" in="shadowBlurOuter1"/>
    </filter>
    <linearGradient x1="50%" y1="0%" x2="50%" y2="100%" id="gradient-5">
      <stop stop-color="#FFF" stop-opacity=".5" offset="0"/>
      <stop stop-opacity=".5" offset="1"/>
    </linearGradient>
  </defs>
  <path d="M 220.581 181.127 L 234.054 173.601 L 234.054 159.453 C 232.489 159.175 231.071 158.354 230.049 157.135 L 208.464 169.626 C 208.721 170.345 208.86 171.115 208.86 171.922 C 208.86 172.597 208.765 173.242 208.581 173.858 L 220.581 181.127 Z M 228.905 155.177 C 228.619 154.415 228.473 153.607 228.473 152.793 C 228.473 150.923 229.228 149.229 230.453 148.003 C 231.678 146.778 233.373 146.023 235.243 146.023 C 237.113 146.023 238.807 146.778 240.033 148.003 C 241.303 149.273 242.017 150.997 242.013 152.793 C 242.013 153.614 241.866 154.399 241.602 155.125 L 263.291 167.668 C 263.445 167.485 263.599 167.301 263.768 167.133 C 265.037 165.861 266.761 165.149 268.557 165.152 C 270.427 165.152 272.121 165.908 273.346 167.133 C 274.617 168.402 275.331 170.125 275.327 171.922 C 275.327 173.793 274.572 175.479 273.346 176.704 C 272.294 177.758 270.921 178.434 269.445 178.626 L 269.445 203.498 C 270.963 203.696 272.32 204.393 273.346 205.42 C 274.572 206.645 275.327 208.339 275.327 210.202 C 275.331 213.943 272.297 216.976 268.557 216.972 C 266.524 216.976 264.597 216.061 263.313 214.485 L 241.594 227.042 C 241.858 227.769 242.005 228.553 242.005 229.375 C 242.005 231.245 241.249 232.94 240.025 234.165 C 238.755 235.436 237.032 236.149 235.235 236.145 C 233.365 236.145 231.671 235.389 230.445 234.165 C 229.221 232.94 228.465 231.245 228.465 229.375 C 228.465 228.539 228.619 227.732 228.898 226.991 L 207.319 214.515 C 206.034 216.079 204.114 216.984 202.089 216.979 C 200.219 216.979 198.525 216.224 197.3 214.999 C 196.082 213.774 195.327 212.08 195.327 210.209 C 195.327 208.339 196.082 206.652 197.307 205.427 C 198.348 204.385 199.7 203.711 201.158 203.505 L 201.158 178.618 C 199.699 178.417 198.346 177.741 197.307 176.697 C 196.036 175.432 195.322 173.709 195.327 171.915 C 195.327 170.045 196.082 168.35 197.307 167.125 C 198.577 165.854 200.301 165.141 202.097 165.145 C 204.134 165.141 206.065 166.058 207.349 167.638 L 228.905 155.177 Z M 240.465 157.091 C 239.437 158.345 237.992 159.186 236.394 159.461 L 236.394 173.601 L 249.839 181.391 L 262.197 174.247 C 261.926 173.521 261.787 172.729 261.787 171.915 C 261.787 171.122 261.926 170.353 262.176 169.648 L 240.465 157.091 Z M 267.376 178.582 C 266.008 178.345 264.747 177.689 263.768 176.704 C 263.628 176.565 263.496 176.425 263.371 176.272 L 251.034 183.401 L 251.034 198.642 L 263.423 205.793 C 263.533 205.669 263.643 205.545 263.76 205.427 C 264.741 204.445 266.001 203.789 267.369 203.549 L 267.369 178.582 L 267.376 178.582 Z M 262.19 212.52 C 261.926 211.801 261.787 211.024 261.787 210.217 C 261.787 209.365 261.941 208.552 262.234 207.796 L 250.249 200.88 L 236.394 208.933 L 236.394 222.715 C 237.992 222.99 239.437 223.83 240.465 225.084 L 262.19 212.52 Z M 230.049 225.033 C 231.071 223.814 232.489 222.993 234.054 222.715 L 234.054 208.867 L 220.148 200.799 L 208.346 207.613 C 208.677 208.413 208.867 209.293 208.867 210.217 C 208.867 211.038 208.721 211.823 208.456 212.549 L 230.049 225.033 Z M 203.219 203.535 C 204.635 203.769 205.904 204.452 206.879 205.427 C 206.953 205.501 207.018 205.573 207.085 205.647 L 219.106 198.709 L 219.106 182.961 L 207.532 175.949 C 207.334 176.22 207.114 176.469 206.879 176.704 C 205.885 177.7 204.606 178.361 203.219 178.597 L 203.219 203.535 Z M 202.105 176.345 C 202.133 176.345 202.163 176.337 202.193 176.337 L 202.251 176.337 C 203.372 176.302 204.437 175.841 205.229 175.046 C 206.061 174.217 206.529 173.089 206.527 171.915 C 206.527 170.689 206.029 169.582 205.229 168.783 C 204.429 167.983 203.322 167.485 202.097 167.485 C 200.872 167.485 199.765 167.983 198.965 168.783 C 198.133 169.613 197.666 170.74 197.667 171.915 C 197.667 173.14 198.165 174.247 198.965 175.046 C 199.797 175.881 200.927 176.348 202.105 176.345 Z M 238.367 226.257 C 237.537 225.426 236.41 224.959 235.235 224.96 C 234.01 224.96 232.903 225.458 232.103 226.257 C 231.304 227.057 230.805 228.165 230.805 229.389 C 230.805 230.614 231.304 231.722 232.103 232.521 C 232.903 233.321 234.01 233.82 235.235 233.82 C 236.46 233.82 237.568 233.321 238.367 232.521 C 239.167 231.722 239.665 230.614 239.665 229.389 C 239.665 228.165 239.174 227.057 238.367 226.257 Z M 238.367 149.661 C 237.537 148.829 236.41 148.362 235.235 148.363 C 234.01 148.363 232.903 148.861 232.103 149.661 C 231.304 150.461 230.805 151.568 230.805 152.793 C 230.805 154.018 231.304 155.125 232.103 155.925 C 232.933 156.757 234.061 157.225 235.235 157.223 C 236.46 157.223 237.568 156.725 238.367 155.925 C 239.2 155.095 239.667 153.968 239.665 152.793 C 239.665 151.568 239.174 150.461 238.367 149.661 Z M 271.681 207.085 C 270.852 206.253 269.725 205.785 268.549 205.786 C 267.325 205.786 266.217 206.285 265.417 207.085 C 264.586 207.915 264.119 209.041 264.12 210.217 C 264.12 211.441 264.618 212.549 265.417 213.349 C 266.247 214.181 267.375 214.649 268.549 214.647 C 269.774 214.647 270.882 214.148 271.681 213.349 C 272.514 212.519 272.981 211.392 272.98 210.217 C 272.98 208.992 272.489 207.884 271.681 207.085 Z M 205.229 207.085 C 204.429 206.285 203.322 205.786 202.097 205.786 C 200.872 205.786 199.765 206.285 198.965 207.085 C 198.133 207.915 197.666 209.041 197.667 210.217 C 197.667 211.441 198.165 212.549 198.965 213.349 C 199.765 214.148 200.872 214.647 202.097 214.647 C 203.322 214.647 204.429 214.148 205.229 213.349 C 206.061 212.519 206.529 211.392 206.527 210.217 C 206.525 209.042 206.058 207.917 205.229 207.085 Z M 264.604 173.917 C 264.662 173.976 264.706 174.049 264.75 174.122 C 264.794 174.196 264.824 174.269 264.853 174.349 C 265.021 174.599 265.213 174.834 265.417 175.046 C 266.247 175.879 267.375 176.346 268.549 176.345 C 269.774 176.345 270.882 175.846 271.681 175.046 C 272.514 174.217 272.981 173.089 272.98 171.915 C 272.98 170.689 272.481 169.582 271.681 168.783 C 270.852 167.951 269.725 167.484 268.549 167.485 C 267.325 167.485 266.217 167.983 265.417 168.783 C 264.586 169.613 264.119 170.74 264.12 171.915 C 264.127 172.641 264.303 173.316 264.604 173.917 Z M 221.299 198.459 C 221.465 198.639 221.576 198.863 221.615 199.105 L 234.179 206.49 L 234.179 191.909 L 221.299 184.245 L 221.299 198.459 Z M 248.849 184.442 L 236.372 191.917 L 236.372 206.505 L 248.849 199.134 L 248.849 184.442 Z M 235.221 175.355 L 223.045 182.638 L 235.287 190.009 L 247.177 182.792 L 235.221 175.355 Z" fill-rule="evenodd" clip-rule="evenodd"/>
  <g fill="none" fill-rule="evenodd" transform="matrix(1, 0, 0, 1, 188.936905, 160.565475)">
    <circle cx="16" cy="15" r="15" transform="matrix(1, 0, 0, 1, 0, 0)" fill="#000" filter="url(#a)"/>
    <circle cx="16" cy="15" r="15" transform="matrix(1, 0, 0, 1, 0, 0)" fill="#F7931A"/>
    <circle cx="16" cy="15" r="15" transform="matrix(1, 0, 0, 1, 0, 0)" fill="url(#c)" style="mix-blend-mode: soft-light;"/>
    <circle cx="16" cy="15" r="14.5" stroke="#000" stroke-opacity=".097"/>
    <g fill-rule="nonzero">
      <path d="M23.189 13.02c.314-2.096-1.283-3.223-3.465-3.975l.708-2.84-1.728-.43-.69 2.765c-.454-.114-.92-.22-1.385-.326l.695-2.783L15.596 5l-.708 2.839c-.376-.086-.746-.17-1.104-.26l.002-.009-2.384-.595-.46 1.846s1.283.294 1.256.312c.7.175.826.638.805 1.006l-.806 3.235c.048.012.11.03.18.057l-.183-.045-1.13 4.532c-.086.212-.303.531-.793.41.018.025-1.256-.313-1.256-.313l-.858 1.978 2.25.561c.418.105.828.215 1.231.318l-.715 2.872 1.727.43.708-2.84c.472.127.93.245 1.378.357l-.706 2.828 1.728.43.715-2.866c2.948.558 5.164.333 6.097-2.333.752-2.146-.037-3.385-1.588-4.192 1.13-.26 1.98-1.003 2.207-2.538zm-3.95 5.538c-.533 2.147-4.148.986-5.32.695l.95-3.805c1.172.293 4.929.872 4.37 3.11zm.535-5.569c-.487 1.953-3.495.96-4.47.717l.86-3.45c.975.243 4.118.696 3.61 2.733z" transform="matrix(1, 0, 0, 1, 0, 0)" fill="#000" filter="url(#d)"/>
      <path d="M23.189 13.02c.314-2.096-1.283-3.223-3.465-3.975l.708-2.84-1.728-.43-.69 2.765c-.454-.114-.92-.22-1.385-.326l.695-2.783L15.596 5l-.708 2.839c-.376-.086-.746-.17-1.104-.26l.002-.009-2.384-.595-.46 1.846s1.283.294 1.256.312c.7.175.826.638.805 1.006l-.806 3.235c.048.012.11.03.18.057l-.183-.045-1.13 4.532c-.086.212-.303.531-.793.41.018.025-1.256-.313-1.256-.313l-.858 1.978 2.25.561c.418.105.828.215 1.231.318l-.715 2.872 1.727.43.708-2.84c.472.127.93.245 1.378.357l-.706 2.828 1.728.43.715-2.866c2.948.558 5.164.333 6.097-2.333.752-2.146-.037-3.385-1.588-4.192 1.13-.26 1.98-1.003 2.207-2.538zm-3.95 5.538c-.533 2.147-4.148.986-5.32.695l.95-3.805c1.172.293 4.929.872 4.37 3.11zm.535-5.569c-.487 1.953-3.495.96-4.47.717l.86-3.45c.975.243 4.118.696 3.61 2.733z" transform="matrix(1, 0, 0, 1, 0, 0)" fill="#FFF" fill-rule="evenodd"/>
    </g>
  </g>
  <g fill="none" fill-rule="evenodd" transform="matrix(1, 0, 0, 1, 218.936905, 140.496613)">
    <circle cx="16" cy="15" r="15" transform="matrix(1, 0, 0, 1, 0, 0)" fill="#000" filter="url(#a)"/>
    <circle cx="16" cy="15" r="15" transform="matrix(1, 0, 0, 1, 0, 0)" fill="#627EEA"/>
    <circle cx="16" cy="15" r="15" transform="matrix(1, 0, 0, 1, 0, 0)" fill="url(#gradient-1)" style="mix-blend-mode: soft-light;"/>
    <circle cx="16" cy="15" r="14.5" stroke="#000" stroke-opacity=".097"/>
    <g fill-rule="nonzero">
      <path d="M16.498 20.968L24 16.616l-7.502 10.379L9 16.615l7.498 4.351zm0-17.968l7.497 12.22-7.497 4.353L9 15.22 16.498 3z" transform="matrix(1, 0, 0, 1, 0, 0)" fill="#000" filter="url(#filter-1)"/>
      <path d="M16.498 20.968L24 16.616l-7.502 10.379L9 16.615l7.498 4.351zm0-17.968l7.497 12.22-7.497 4.353L9 15.22 16.498 3z" transform="matrix(1, 0, 0, 1, 0, 0)" fill="#FFF" fill-opacity="0" fill-rule="evenodd"/>
    </g>
    <g fill="#FFF" fill-rule="nonzero">
      <path fill-opacity=".602" d="M16.498 3v8.87l7.497 3.35z"/>
      <path d="M16.498 3L9 15.22l7.498-3.35z"/>
      <path fill-opacity=".602" d="M16.498 20.968v6.027L24 16.616z"/>
      <path d="M16.498 26.995v-6.028L9 16.616z"/>
      <path fill-opacity=".2" d="M16.498 19.573l7.497-4.353-7.497-3.348z"/>
      <path fill-opacity=".602" d="M9 15.22l7.498 4.353v-7.701z"/>
    </g>
  </g>
  <g fill="none" fill-rule="evenodd" transform="matrix(1, 0, 0, 1, 248.93692, 160.565475)">
    <circle cx="16" cy="15" r="15" transform="matrix(1, 0, 0, 1, 0, 0)" fill="#000" filter="url(#a)"/>
    <circle cx="16" cy="15" r="15" transform="matrix(1, 0, 0, 1, 0, 0)" fill="#26A17B"/>
    <circle cx="16" cy="15" r="15" transform="matrix(1, 0, 0, 1, 0, 0)" fill="url(#gradient-2)" style="mix-blend-mode: soft-light;"/>
    <circle cx="16" cy="15" r="14.5" stroke="#000" stroke-opacity=".097"/>
    <path d="M17.922 16.383v-.002c-.11.008-.677.042-1.942.042-1.01 0-1.721-.03-1.971-.042v.003c-3.888-.171-6.79-.848-6.79-1.658 0-.809 2.902-1.486 6.79-1.66v2.644c.254.018.982.061 1.988.061 1.207 0 1.812-.05 1.925-.06v-2.643c3.88.173 6.775.85 6.775 1.658 0 .81-2.895 1.485-6.775 1.657m0-3.59v-2.366h5.414V6.819H8.595v3.608h5.414v2.365c-4.4.202-7.709 1.074-7.709 2.118 0 1.044 3.309 1.915 7.709 2.118v7.582h3.913v-7.584c4.393-.202 7.694-1.073 7.694-2.116 0-1.043-3.301-1.914-7.694-2.117" transform="matrix(1, 0, 0, 1, 0, 0)" fill="#000" filter="url(#filter-2)"/>
    <path d="M17.922 16.383v-.002c-.11.008-.677.042-1.942.042-1.01 0-1.721-.03-1.971-.042v.003c-3.888-.171-6.79-.848-6.79-1.658 0-.809 2.902-1.486 6.79-1.66v2.644c.254.018.982.061 1.988.061 1.207 0 1.812-.05 1.925-.06v-2.643c3.88.173 6.775.85 6.775 1.658 0 .81-2.895 1.485-6.775 1.657m0-3.59v-2.366h5.414V6.819H8.595v3.608h5.414v2.365c-4.4.202-7.709 1.074-7.709 2.118 0 1.044 3.309 1.915 7.709 2.118v7.582h3.913v-7.584c4.393-.202 7.694-1.073 7.694-2.116 0-1.043-3.301-1.914-7.694-2.117" transform="matrix(1, 0, 0, 1, 0, 0)" fill="#FFF"/>
  </g>
  <g fill="none" transform="matrix(1, 0, 0, 1, 248.93692, 193.3629)">
    <circle cx="16" cy="15" r="15" transform="matrix(1, 0, 0, 1, 0, 0)" fill="#000" filter="url(#a)"/>
    <circle cx="16" cy="15" r="15" transform="matrix(1, 0, 0, 1, 0, 0)" fill="#F3BA2F" fill-rule="evenodd"/>
    <circle cx="16" cy="15" r="15" transform="matrix(1, 0, 0, 1, 0, 0)" fill="url(#gradient-3)" fill-rule="evenodd" style="mix-blend-mode: soft-light;"/>
    <circle cx="16" cy="15" r="14.5" stroke="#000" stroke-opacity=".097"/>
    <path d="M12.116 13.404L16 9.52l3.886 3.886 2.26-2.26L16 5l-6.144 6.144 2.26 2.26zM6 15l2.26-2.26L10.52 15l-2.26 2.26L6 15zm6.116 1.596L16 20.48l3.886-3.886 2.26 2.259L16 25l-6.144-6.144-.003-.003 2.263-2.257zM21.48 15l2.26-2.26L26 15l-2.26 2.26L21.48 15zm-3.188-.002h.002V15L16 17.294l-2.291-2.29-.004-.004.004-.003.401-.402.195-.195L16 12.706l2.293 2.293z" transform="matrix(1, 0, 0, 1, 0, 0)" fill="#000" filter="url(#filter-3)"/>
    <path d="M12.116 13.404L16 9.52l3.886 3.886 2.26-2.26L16 5l-6.144 6.144 2.26 2.26zM6 15l2.26-2.26L10.52 15l-2.26 2.26L6 15zm6.116 1.596L16 20.48l3.886-3.886 2.26 2.259L16 25l-6.144-6.144-.003-.003 2.263-2.257zM21.48 15l2.26-2.26L26 15l-2.26 2.26L21.48 15zm-3.188-.002h.002V15L16 17.294l-2.291-2.29-.004-.004.004-.003.401-.402.195-.195L16 12.706l2.293 2.293z" transform="matrix(1, 0, 0, 1, 0, 0)" fill="#FFF" fill-rule="evenodd"/>
  </g>
  <g fill="none" transform="matrix(1, 0, 0, 1, 218.936905, 211.416641)">
    <g transform="translate(1)">
      <circle cx="15" cy="15" r="15" transform="matrix(1, 0, 0, 1, 0, 0)" fill="#000" filter="url(#a)"/>
      <circle cx="15" cy="15" r="15" transform="matrix(1, 0, 0, 1, 0, 0)" fill="#0D1E30"/>
      <circle cx="15" cy="15" r="15" transform="matrix(1, 0, 0, 1, 0, 0)" fill="url(#gradient-4)" style="mix-blend-mode: soft-light;"/>
      <circle stroke-opacity=".097" stroke="#000" stroke-linejoin="square" cx="15" cy="15" r="14.5"/>
    </g>
    <path d="M15.725 5.06c.479-.247 1.064.324.81.795-.149.384-.71.486-.996.193-.303-.28-.204-.836.186-.989zm-5.155.546c.291-.118.66.144.63.457.03.338-.39.588-.687.427-.393-.15-.348-.778.057-.884zm10.558.893c-.455-.054-.527-.758-.09-.9.34-.162.652.143.702.46-.072.27-.302.518-.612.44zm-9.385 1.265c.487-.303 1.181.148 1.106.705-.025.561-.783.887-1.211.507-.414-.298-.351-.982.105-1.212zm7.43.322c.217-.55 1.097-.568 1.344-.032.245.417-.056.934-.491 1.076-.577.106-1.124-.508-.853-1.044zm-4.069 1.013c-.005-.474.433-.826.89-.859.304.06.634.187.764.488.243.416.027.987-.41 1.178-.2.11-.438.069-.656.056-.333-.16-.614-.477-.588-.863zm-7.666.69c.445-.27 1.045.22.876.696-.092.411-.654.578-.975.316-.343-.246-.289-.837.1-1.013zM23.9 9.786c.377-.288 1 .043.954.511.026.427-.513.75-.887.53-.412-.183-.455-.807-.067-1.04zm-6.64.851c.622-.22 1.362.043 1.716.59.468.667.22 1.683-.507 2.066-.752.453-1.851.07-2.13-.758-.315-.74.145-1.666.92-1.898zm-3.653.073c.69-.32 1.619-.052 1.952.642.392.676.089 1.617-.612 1.966-.702.393-1.693.095-2.032-.63-.381-.702-.043-1.655.692-1.978zM9.95 11.94c.053-.437.472-.722.895-.752a.98.98 0 01.87.857c-.03.45-.383.888-.867.886-.533.045-1-.477-.898-.991zm10.802-.656c.547-.313 1.306.142 1.282.76.037.655-.803 1.116-1.347.732-.566-.32-.522-1.22.065-1.492zm-8.63 2.307c.638-.173 1.37.123 1.683.701.343.582.203 1.39-.33 1.818-.685.626-1.946.374-2.31-.48-.419-.783.09-1.833.956-2.04zm6.927-.003c.621-.175 1.351.06 1.685.617.442.637.231 1.588-.426 1.998-.69.477-1.756.227-2.136-.519-.46-.771.003-1.861.877-2.096zm-11.04.726c.552-.205 1.164.394.94.933-.136.49-.839.672-1.202.31-.425-.34-.268-1.095.262-1.243zm14.969.782a.836.836 0 01.788-.874c.378.06.746.36.716.765.035.535-.62.898-1.084.647-.217-.109-.328-.328-.42-.538zM5.294 14.58c.332-.143.743.14.667.503-.018.411-.635.57-.861.226-.2-.239-.08-.606.194-.73zm20.949-.009c.234-.163.61-.046.702.223.157.294-.131.696-.467.647-.472.042-.624-.665-.235-.87zm-12.317 1.973c.874-.223 1.814.494 1.82 1.38.056.895-.87 1.688-1.764 1.482-.692-.11-1.235-.766-1.212-1.453-.002-.658.502-1.27 1.156-1.409zm3.462-.001c.887-.244 1.855.486 1.841 1.392.047.878-.85 1.645-1.726 1.47-.825-.104-1.433-.995-1.203-1.783.116-.524.562-.95 1.088-1.08zm-6.676.545c.614-.103 1.19.57.941 1.144-.182.612-1.086.777-1.486.278-.468-.48-.118-1.356.545-1.422zm10.154.027c.548-.226 1.22.24 1.178.825.022.643-.808 1.087-1.343.711-.607-.337-.496-1.33.165-1.536zm2.838 2.8c-.214-.393.175-.914.62-.841.22-.004.375.167.516.311.029.233.078.511-.119.69-.267.333-.872.238-1.017-.16zm-16.268-.732c.415-.271 1.012.134.918.61-.05.423-.59.664-.945.424-.382-.217-.368-.836.027-1.034zm8.193.883c.543-.235 1.235.23 1.183.818.04.65-.815 1.1-1.346.71-.59-.335-.491-1.321.163-1.528zm-3.794.871c.462-.239 1.082.174 1.04.684.014.418-.4.774-.82.712-.347-.007-.573-.314-.685-.605.006-.317.139-.67.465-.79zm7.686.008c.476-.29 1.152.126 1.107.67.012.57-.752.934-1.195.56-.428-.293-.376-.997.088-1.23zm1.337 3.25c-.212-.314.037-.693.38-.765.277.055.57.26.511.574-.04.427-.674.557-.891.192zm-10.611-.273c.084-.25.288-.497.587-.432.435.03.564.676.183.875-.342.227-.74-.084-.77-.443zm5.12.287c.083-.37.568-.549.888-.353.212.09.274.322.328.52a8.822 8.822 0 00-.08.31c-.131.152-.3.305-.518.3-.405.047-.771-.404-.619-.777z" transform="matrix(1, 0, 0, 1, 0, 0)" fill="#000" filter="url(#filter-4)"/>
    <path d="M15.725 5.06c.479-.247 1.064.324.81.795-.149.384-.71.486-.996.193-.303-.28-.204-.836.186-.989zm-5.155.546c.291-.118.66.144.63.457.03.338-.39.588-.687.427-.393-.15-.348-.778.057-.884zm10.558.893c-.455-.054-.527-.758-.09-.9.34-.162.652.143.702.46-.072.27-.302.518-.612.44zm-9.385 1.265c.487-.303 1.181.148 1.106.705-.025.561-.783.887-1.211.507-.414-.298-.351-.982.105-1.212zm7.43.322c.217-.55 1.097-.568 1.344-.032.245.417-.056.934-.491 1.076-.577.106-1.124-.508-.853-1.044zm-4.069 1.013c-.005-.474.433-.826.89-.859.304.06.634.187.764.488.243.416.027.987-.41 1.178-.2.11-.438.069-.656.056-.333-.16-.614-.477-.588-.863zm-7.666.69c.445-.27 1.045.22.876.696-.092.411-.654.578-.975.316-.343-.246-.289-.837.1-1.013zM23.9 9.786c.377-.288 1 .043.954.511.026.427-.513.75-.887.53-.412-.183-.455-.807-.067-1.04zm-6.64.851c.622-.22 1.362.043 1.716.59.468.667.22 1.683-.507 2.066-.752.453-1.851.07-2.13-.758-.315-.74.145-1.666.92-1.898zm-3.653.073c.69-.32 1.619-.052 1.952.642.392.676.089 1.617-.612 1.966-.702.393-1.693.095-2.032-.63-.381-.702-.043-1.655.692-1.978zM9.95 11.94c.053-.437.472-.722.895-.752a.98.98 0 01.87.857c-.03.45-.383.888-.867.886-.533.045-1-.477-.898-.991zm10.802-.656c.547-.313 1.306.142 1.282.76.037.655-.803 1.116-1.347.732-.566-.32-.522-1.22.065-1.492zm-8.63 2.307c.638-.173 1.37.123 1.683.701.343.582.203 1.39-.33 1.818-.685.626-1.946.374-2.31-.48-.419-.783.09-1.833.956-2.04zm6.927-.003c.621-.175 1.351.06 1.685.617.442.637.231 1.588-.426 1.998-.69.477-1.756.227-2.136-.519-.46-.771.003-1.861.877-2.096zm-11.04.726c.552-.205 1.164.394.94.933-.136.49-.839.672-1.202.31-.425-.34-.268-1.095.262-1.243zm14.969.782a.836.836 0 01.788-.874c.378.06.746.36.716.765.035.535-.62.898-1.084.647-.217-.109-.328-.328-.42-.538zM5.294 14.58c.332-.143.743.14.667.503-.018.411-.635.57-.861.226-.2-.239-.08-.606.194-.73zm20.949-.009c.234-.163.61-.046.702.223.157.294-.131.696-.467.647-.472.042-.624-.665-.235-.87zm-12.317 1.973c.874-.223 1.814.494 1.82 1.38.056.895-.87 1.688-1.764 1.482-.692-.11-1.235-.766-1.212-1.453-.002-.658.502-1.27 1.156-1.409zm3.462-.001c.887-.244 1.855.486 1.841 1.392.047.878-.85 1.645-1.726 1.47-.825-.104-1.433-.995-1.203-1.783.116-.524.562-.95 1.088-1.08zm-6.676.545c.614-.103 1.19.57.941 1.144-.182.612-1.086.777-1.486.278-.468-.48-.118-1.356.545-1.422zm10.154.027c.548-.226 1.22.24 1.178.825.022.643-.808 1.087-1.343.711-.607-.337-.496-1.33.165-1.536zm2.838 2.8c-.214-.393.175-.914.62-.841.22-.004.375.167.516.311.029.233.078.511-.119.69-.267.333-.872.238-1.017-.16zm-16.268-.732c.415-.271 1.012.134.918.61-.05.423-.59.664-.945.424-.382-.217-.368-.836.027-1.034zm8.193.883c.543-.235 1.235.23 1.183.818.04.65-.815 1.1-1.346.71-.59-.335-.491-1.321.163-1.528zm-3.794.871c.462-.239 1.082.174 1.04.684.014.418-.4.774-.82.712-.347-.007-.573-.314-.685-.605.006-.317.139-.67.465-.79zm7.686.008c.476-.29 1.152.126 1.107.67.012.57-.752.934-1.195.56-.428-.293-.376-.997.088-1.23zm1.337 3.25c-.212-.314.037-.693.38-.765.277.055.57.26.511.574-.04.427-.674.557-.891.192zm-10.611-.273c.084-.25.288-.497.587-.432.435.03.564.676.183.875-.342.227-.74-.084-.77-.443zm5.12.287c.083-.37.568-.549.888-.353.212.09.274.322.328.52a8.822 8.822 0 00-.08.31c-.131.152-.3.305-.518.3-.405.047-.771-.404-.619-.777z" transform="matrix(1, 0, 0, 1, 0, 0)" fill="#FFF"/>
  </g>
  <g fill="none" transform="matrix(1, 0, 0, 1, 188.936905, 193.3629)">
    <g transform="translate(1)">
      <circle cx="15" cy="15" r="15" transform="matrix(1, 0, 0, 1, 0, 0)" fill="#000" filter="url(#a)"/>
      <circle cx="15" cy="15" r="15" transform="matrix(1, 0, 0, 1, 0, 0)" fill="#23292F" fill-rule="evenodd"/>
      <circle cx="15" cy="15" r="15" transform="matrix(1, 0, 0, 1, 0, 0)" fill="url(#gradient-5)" fill-rule="evenodd" style="mix-blend-mode: soft-light;"/>
      <circle stroke-opacity=".097" stroke="#000" stroke-linejoin="square" cx="15" cy="15" r="14.5"/>
    </g>
    <path d="M22.363 8h2.602l-5.414 5.361a5.059 5.059 0 01-7.102 0L7.032 8h2.605l4.113 4.071a3.2 3.2 0 004.496 0L22.363 8zM9.605 22.906H7l5.45-5.393a5.059 5.059 0 017.1 0L25 22.906h-2.605L18.25 18.8a3.2 3.2 0 00-4.496 0l-4.149 4.106z" fill="#FFF"/>
  </g>
</svg>