<svg id="SvgjsSvg1001" width="288" height="288" xmlns="http://www.w3.org/2000/svg" version="1.1" xmlns:xlink="http://www.w3.org/1999/xlink" xmlns:svgjs="http://svgjs.com/svgjs"><defs id="SvgjsDefs1002"></defs><g id="SvgjsG1008" transform="matrix(1,0,0,1,0,0)"><svg xmlns="http://www.w3.org/2000/svg" viewBox="0 0 340 340" width="288" height="288"><polygon fill="#b77b93" points="177.357 15.306 214.484 15.306 177.357 43.682 177.357 15.306" class="color51869c svgShape"></polygon><rect width="86.29" height="145.688" x="130.52" y="93.613" fill="#6a9fb5" class="colorb77b93 svgShape"></rect><rect width="65.187" height="74.608" x="78.595" y="164.693" fill="#e6b8c5" class="colore6b8c5 svgShape"></rect><rect width="65.187" height="74.608" x="203.547" y="164.693" fill="#e6b8c5" class="colore6b8c5 svgShape"></rect><rect width="200.093" height="66.615" x="73.618" y="250.381" fill="#6a9fb5" class="colorb77b93 svgShape"></rect><path fill="#34435e" d="M173.665,268.35h0a29.882,29.882,0,0,1,29.882,29.882v21.461a0,0,0,0,1,0,0H143.783a0,0,0,0,1,0,0V298.232a29.882,29.882,0,0,1,29.882-29.882Z" class="color34435e svgShape"></path><path fill="#e6b8c5" d="M167.609,315.839s37.222-.428,65.458-15.83c0,0,65.459-38.5,93.268,24.684H213.958Z" class="colore6b8c5 svgShape"></path><path fill="#e7d9c8" d="M263.547 229.33v4.912H237.866V229.33a6.537 6.537 0 0 0-6.536-6.537H218.722a6.537 6.537 0 0 0-6.536 6.537v4.912H186.505V229.33a6.537 6.537 0 0 0-6.536-6.537H167.361a6.537 6.537 0 0 0-6.536 6.537v4.912H135.144V229.33a6.537 6.537 0 0 0-6.537-6.537H116a6.537 6.537 0 0 0-6.537 6.537v4.912H83.783V229.33a6.537 6.537 0 0 0-6.537-6.537H58.1v27.588H289.228V222.793H270.084A6.537 6.537 0 0 0 263.547 229.33zM248.981 152.165v4.464H223.3v-4.464a6.249 6.249 0 0 0-6.249-6.249H203.868a6.248 6.248 0 0 0-6.248 6.249v12.522a6.817 6.817 0 0 0 6.817 6.817h63.408a6.817 6.817 0 0 0 6.817-6.817V145.916H255.229A6.249 6.249 0 0 0 248.981 152.165zM124.029 156.629H98.349v-4.464a6.249 6.249 0 0 0-6.249-6.249H72.668v18.771a6.817 6.817 0 0 0 6.817 6.817h63.408a6.817 6.817 0 0 0 6.817-6.817V152.165a6.249 6.249 0 0 0-6.248-6.249H130.278a6.249 6.249 0 0 0-6.249 6.249zM230.866 86.758V67.025H214.594a7.408 7.408 0 0 0-7.408 7.408v4.3H185.505v-4.3a7.408 7.408 0 0 0-7.408-7.408h-8.864a7.408 7.408 0 0 0-7.408 7.408v4.3H140.144v-4.3a7.408 7.408 0 0 0-7.408-7.408H116.463V86.758a6.855 6.855 0 0 0 6.855 6.855H224.012A6.854 6.854 0 0 0 230.866 86.758z" class="colore7d9c8 svgShape"></path><path fill="#34435e" d="M111.189 188.592h0a9.172 9.172 0 0 1 9.172 9.172v10.97a0 0 0 0 1 0 0H102.017a0 0 0 0 1 0 0v-10.97A9.172 9.172 0 0 1 111.189 188.592zM173.665 117.512h0a9.172 9.172 0 0 1 9.172 9.172v10.97a0 0 0 0 1 0 0H164.493a0 0 0 0 1 0 0v-10.97A9.172 9.172 0 0 1 173.665 117.512zM236.141 188.592h0a9.172 9.172 0 0 1 9.172 9.172v10.97a0 0 0 0 1 0 0H226.969a0 0 0 0 1 0 0v-10.97A9.172 9.172 0 0 1 236.141 188.592z" class="color34435e svgShape"></path><path fill="#e7d9c8" d="M13.665,324.693S28.608,292.573,72.439,285a102.7,102.7,0,0,1,53.325,5.3c7.281,2.716,16.3,6.308,25.588,10.563,26.006,11.914,65.458,23.828,65.458,23.828Z" class="colore7d9c8 svgShape"></path><rect width="200.093" height="11.325" x="73.618" y="250.381" fill="#6a9fb5" class="color6a9fb5 svgShape"></rect><rect width="86.29" height="11.325" x="130.52" y="93.613" fill="#6a9fb5" class="color6a9fb5 svgShape"></rect><rect width="65.187" height="10.196" x="78.595" y="171.504" fill="#6a9fb5" class="color6a9fb5 svgShape"></rect><rect width="65.187" height="10.196" x="203.547" y="171.504" fill="#6a9fb5" class="color6a9fb5 svgShape"></rect><path fill="#34435e" d="M212.809 131.352a4 4 0 0 0 8 0V97.613h3.2a10.866 10.866 0 0 0 10.853-10.855V67.025a4 4 0 0 0-4-4H214.594a11.422 11.422 0 0 0-11.409 11.409v.3h-13.68v-.3A11.421 11.421 0 0 0 178.1 63.025h-8.864a11.421 11.421 0 0 0-11.408 11.409v.3H144.144v-.3a11.422 11.422 0 0 0-11.408-11.409H116.463a4 4 0 0 0-4 4V86.758a10.867 10.867 0 0 0 10.855 10.855h3.2v32.826a4 4 0 1 0 8 0V97.613h78.289zM130.52 89.613h-7.2a2.857 2.857 0 0 1-2.855-2.855V71.025h12.273a3.412 3.412 0 0 1 3.408 3.409v4.3a4 4 0 0 0 4 4h21.681a4 4 0 0 0 4-4v-4.3a3.412 3.412 0 0 1 3.408-3.409H178.1a3.412 3.412 0 0 1 3.408 3.409v4.3a4 4 0 0 0 4 4h21.68a4 4 0 0 0 4-4v-4.3a3.413 3.413 0 0 1 3.409-3.409h12.272V86.758a2.857 2.857 0 0 1-2.853 2.855H130.52zM105.44 280.854a4 4 0 0 0-1.236 7.9q.633.1 1.265.205a4.1 4.1 0 0 0 .668.056 4 4 0 0 0 .657-7.946C106.344 281 105.892 280.924 105.44 280.854zM11.971 328.311a4 4 0 0 0 5.316-1.922c.583-1.236 14.744-30.348 55.833-37.446a94.235 94.235 0 0 1 16-1.362.2.2 0 0 0 .035 0 4 4 0 0 0 0-8h-.035a102.3 102.3 0 0 0-17.358 1.479c-45.373 7.837-61.075 40.557-61.721 41.945A4 4 0 0 0 11.971 328.311z" class="color1b2a45 svgShape"></path><path fill="#34435e" d="M58.1,254.38H69.618v15.337a4,4,0,0,0,8,0V254.381H269.712v30.21c-20.341,1.538-37.146,11.08-38.613,11.935-14.9,8.114-32.535,11.893-44.711,13.635a3.954,3.954,0,0,0-.426.105c-10.984-3.9-23-8.482-32.944-13.038-1.645-.753-3.325-1.5-5.026-2.248a25.88,25.88,0,0,1,51.513,1.769,4,4,0,0,0,3.99,3.775q.114,0,.228-.006a4,4,0,0,0,3.77-4.219,33.882,33.882,0,0,0-67.084-4.548q-6.429-2.652-13.247-5.2-1.52-.567-3.053-1.09a4,4,0,0,0-2.583,7.572q1.427.486,2.84,1.013c8.967,3.347,17.486,6.863,25.32,10.452,25.954,11.891,65.57,23.9,65.967,24.021a4,4,0,1,0,2.313-7.658c-.162-.049-6.922-2.1-16.588-5.307,10.668-2.373,22.758-6.12,33.6-12.036l.114-.064c.293-.173,29.7-17.192,56.056-8.682C304.8,299.18,315.4,309.788,322.674,326.3A4,4,0,1,0,330,323.082c-8.229-18.7-20.471-30.783-36.387-35.92a58.84,58.84,0,0,0-15.9-2.729V254.38h11.515a4,4,0,0,0,4-4V222.793a4,4,0,0,0-4-4H270.084a10.548,10.548,0,0,0-10.537,10.537v.912H241.866v-.912a10.549,10.549,0,0,0-10.536-10.537H218.722a10.549,10.549,0,0,0-10.537,10.537v.912h-17.68v-.912a10.549,10.549,0,0,0-10.536-10.537H167.361a10.548,10.548,0,0,0-10.536,10.537v.912H139.144v-.912a10.549,10.549,0,0,0-10.537-10.537H116a10.549,10.549,0,0,0-10.537,10.537v.912H87.783v-.912a10.549,10.549,0,0,0-10.537-10.537H58.1a4,4,0,0,0-4,4V250.38A4,4,0,0,0,58.1,254.38Zm4-27.587H77.246a2.54,2.54,0,0,1,2.537,2.537v4.912a4,4,0,0,0,4,4h25.68a4,4,0,0,0,4-4V229.33A2.54,2.54,0,0,1,116,226.793h12.607a2.54,2.54,0,0,1,2.537,2.537v4.912a4,4,0,0,0,4,4h25.681a4,4,0,0,0,4-4V229.33a2.539,2.539,0,0,1,2.536-2.537h12.608a2.54,2.54,0,0,1,2.536,2.537v4.912a4,4,0,0,0,4,4h25.68a4,4,0,0,0,4-4V229.33a2.54,2.54,0,0,1,2.537-2.537H231.33a2.54,2.54,0,0,1,2.536,2.537v4.912a4,4,0,0,0,4,4h25.681a4,4,0,0,0,4-4V229.33a2.539,2.539,0,0,1,2.537-2.537h15.143V246.38H62.1Z" class="color1b2a45 svgShape"></path><path fill="#34435e" d="M244.981 152.165v.464H227.3v-.464a10.26 10.26 0 0 0-10.248-10.248H203.868a10.26 10.26 0 0 0-10.248 10.248v12.522a10.821 10.821 0 0 0 5.927 9.636v43.843a4 4 0 0 0 8 0V175.5h57.187v34.184a4 4 0 0 0 8 0V174.323a10.819 10.819 0 0 0 5.928-9.636v-18.77a4 4 0 0 0-4-4H255.229A10.26 10.26 0 0 0 244.981 152.165zm8 4.464v-4.464a2.251 2.251 0 0 1 2.248-2.248h15.433v14.77a2.821 2.821 0 0 1-2.817 2.817H204.437a2.821 2.821 0 0 1-2.817-2.817V152.165a2.251 2.251 0 0 1 2.248-2.248h13.185a2.251 2.251 0 0 1 2.248 2.248v4.464a4 4 0 0 0 4 4h25.68A4 4 0 0 0 252.981 156.629zM98.017 197.764v10.97a4 4 0 0 0 4 4h18.344a4 4 0 0 0 4-4v-10.97a13.172 13.172 0 0 0-26.344 0zm18.344 0v6.97H106.017v-6.97a5.172 5.172 0 0 1 10.344 0zM186.837 126.684a13.172 13.172 0 0 0-26.344 0v10.97a4 4 0 0 0 4 4h18.344a4 4 0 0 0 4-4zm-8 6.97H168.493v-6.97a5.172 5.172 0 0 1 10.344 0z" class="color1b2a45 svgShape"></path><path fill="#34435e" d="M222.969 197.764v10.97a4 4 0 0 0 4 4h18.344a4 4 0 0 0 4-4v-10.97a13.172 13.172 0 1 0-26.344 0zm18.344 0v6.97H230.969v-6.97a5.172 5.172 0 1 1 10.344 0zM147.705 115.883a3.995 3.995 0 0 0 4-4 4.129 4.129 0 0 0-.08-.78 4.387 4.387 0 0 0-.23-.75 3.828 3.828 0 0 0-.37-.69 3.985 3.985 0 0 0-6.15-.6 4.081 4.081 0 0 0-.5.6 4.579 4.579 0 0 0-.37.69 4.252 4.252 0 0 0-.22.75 3.445 3.445 0 0 0-.08.78 3.995 3.995 0 0 0 4 4zM143.785 126.143a3.809 3.809 0 0 0 .22.75 4.143 4.143 0 0 0 .37.69 3.694 3.694 0 0 0 .5.61 4.008 4.008 0 0 0 5.66 0 3.639 3.639 0 0 0 .49-.61 3.519 3.519 0 0 0 .37-.69 3.9 3.9 0 0 0 .23-.75 4.047 4.047 0 0 0 .08-.78 4.021 4.021 0 0 0-.31-1.53 3.828 3.828 0 0 0-.37-.69 3.914 3.914 0 0 0-3.32-1.78 4.025 4.025 0 0 0-2.83 1.17 4.161 4.161 0 0 0-.5.61 4.579 4.579 0 0 0-.37.69 4.019 4.019 0 0 0-.22.75 3.445 3.445 0 0 0-.08.78A3.387 3.387 0 0 0 143.785 126.143zM180.1 187.713a4.047 4.047 0 0 0 1.441.6 4.107 4.107 0 0 0 .78.07 3.987 3.987 0 0 0 2.83-1.17 4.279 4.279 0 0 0 .5-.61 3.687 3.687 0 0 0 .359-.69 3.887 3.887 0 0 0 .231-.74 3.891 3.891 0 0 0 0-1.57 3.887 3.887 0 0 0-.231-.74 4.121 4.121 0 0 0-.359-.7 4.82 4.82 0 0 0-.5-.6 4.044 4.044 0 0 0-3.61-1.1 4.047 4.047 0 0 0-1.441.6 3.6 3.6 0 0 0-.609.5 4 4 0 0 0 0 5.65A4.153 4.153 0 0 0 180.1 187.713zM170.005 188.643a4.074 4.074 0 0 0-1.1-3.61 3.738 3.738 0 0 0-.61-.491 3.569 3.569 0 0 0-.69-.369 3.832 3.832 0 0 0-.75-.23 3.985 3.985 0 0 0-4.7 4.7 3.832 3.832 0 0 0 .23.75 3.519 3.519 0 0 0 .37.69 3.685 3.685 0 0 0 .489.61 4.289 4.289 0 0 0 .611.5 4.579 4.579 0 0 0 .69.37 4.252 4.252 0 0 0 .75.22 3.445 3.445 0 0 0 .78.08 3.987 3.987 0 0 0 2.83-1.17 3.694 3.694 0 0 0 .5-.61 4.143 4.143 0 0 0 .37-.69A4.659 4.659 0 0 0 170.005 188.643zM169.975 203.523a4.2 4.2 0 0 0 .36.7 4.82 4.82 0 0 0 .5.6 4 4 0 1 0 5.66-5.65 3.645 3.645 0 0 0-.61-.5 4.033 4.033 0 0 0-1.44-.6 4.094 4.094 0 0 0-1.56 0 4.033 4.033 0 0 0-1.44.6 3.605 3.605 0 0 0-.61.5 4.82 4.82 0 0 0-.5.6 4.524 4.524 0 0 0-.36.69 4.392 4.392 0 0 0-.231.75 3.94 3.94 0 0 0 0 1.57A4.035 4.035 0 0 0 169.975 203.523zM89.785 296.1a3.607 3.607 0 0 0-1.1-1.1 3.8 3.8 0 0 0-.691-.37 4.3 4.3 0 0 0-.75-.23 3.738 3.738 0 0 0-1.569 0 3.956 3.956 0 0 0-.74.23 3.289 3.289 0 0 0-.691.37 3.672 3.672 0 0 0-.609.49 4.161 4.161 0 0 0-.5.61 4.624 4.624 0 0 0-.371.689 4.824 4.824 0 0 0-.229.75 4.386 4.386 0 0 0 0 1.561 4.759 4.759 0 0 0 .229.75 4.527 4.527 0 0 0 .371.689 3.661 3.661 0 0 0 .5.611 4.326 4.326 0 0 0 .609.5 3.846 3.846 0 0 0 1.431.59 3.532 3.532 0 0 0 .79.08 3.43 3.43 0 0 0 .779-.08 4.252 4.252 0 0 0 .75-.22 4.632 4.632 0 0 0 .691-.37 4.919 4.919 0 0 0 .61-.5 3.607 3.607 0 0 0 .49-.611 3.786 3.786 0 0 0 .37-.689 3.832 3.832 0 0 0 .23-.75 3.847 3.847 0 0 0 0-1.561 4.018 4.018 0 0 0-.6-1.439zM74.264 302.083a3.6 3.6 0 0 0 .491-.61 3.256 3.256 0 0 0 .37-.69 3.989 3.989 0 0 0 .23-.741 4.215 4.215 0 0 0 .08-.789 4.129 4.129 0 0 0-.08-.78 4.3 4.3 0 0 0-.23-.75 3.828 3.828 0 0 0-.37-.69 3.522 3.522 0 0 0-.491-.6 3.56 3.56 0 0 0-.609-.5 4.033 4.033 0 0 0-1.44-.6 4.093 4.093 0 0 0-1.56 0 4.033 4.033 0 0 0-1.44.6 3.566 3.566 0 0 0-.61.5 4.188 4.188 0 0 0-.5.6 4.62 4.62 0 0 0-.361.69 4.478 4.478 0 0 0-.23.75 4.212 4.212 0 0 0-.079.78 4.029 4.029 0 0 0 1.17 2.83 4.109 4.109 0 0 0 .61.5 4.579 4.579 0 0 0 .69.37 4.659 4.659 0 0 0 .75.23 4.381 4.381 0 0 0 1.56 0 4.659 4.659 0 0 0 .75-.23 4.579 4.579 0 0 0 .69-.37A4.1 4.1 0 0 0 74.264 302.083zM73.175 312.883a3.519 3.519 0 0 0 .37.69 3.283 3.283 0 0 0 .5.61 4 4 0 0 0 5.65 0 3.283 3.283 0 0 0 .5-.61 4.579 4.579 0 0 0 .37-.69 3.9 3.9 0 0 0 .23-.75 4.129 4.129 0 0 0 .08-.78 4 4 0 1 0-8 0 4.114 4.114 0 0 0 .07.78A3.766 3.766 0 0 0 73.175 312.883zM281.245 312.883a3.791 3.791 0 0 0 .75.23 3.842 3.842 0 0 0 1.56 0 3.875 3.875 0 0 0 .75-.23 4.571 4.571 0 0 0 .69-.36 4.837 4.837 0 0 0 .609-.5 4.06 4.06 0 0 0 1.17-2.83 4.128 4.128 0 0 0-.079-.78 3.973 3.973 0 0 0-.23-.75 3.828 3.828 0 0 0-.37-.69 3.637 3.637 0 0 0-1.1-1.1 4.033 4.033 0 0 0-1.44-.6 4.093 4.093 0 0 0-1.56 0 4.033 4.033 0 0 0-1.44.6 4.093 4.093 0 0 0-.61.49 4.831 4.831 0 0 0-.5.61 4.436 4.436 0 0 0-.36.69 3.259 3.259 0 0 0-.231.75 3.5 3.5 0 0 0-.08.78 4.066 4.066 0 0 0 1.171 2.83 4.919 4.919 0 0 0 .61.5A4.478 4.478 0 0 0 281.245 312.883zM273.984 304.792a3.405 3.405 0 0 0 .5-.6 3.494 3.494 0 0 0 .37-.7 3.887 3.887 0 0 0 .231-.74 4.129 4.129 0 0 0 .08-.78 4.234 4.234 0 0 0-.08-.79 3.887 3.887 0 0 0-.231-.74 4.049 4.049 0 0 0-.87-1.3 3.994 3.994 0 0 0-5.649 0 4.212 4.212 0 0 0-.5.61 3.722 3.722 0 0 0-.37.69 3.922 3.922 0 0 0-.22.74 3.474 3.474 0 0 0-.08.79 3.388 3.388 0 0 0 .08.78 3.922 3.922 0 0 0 .22.74 4.166 4.166 0 0 0 .37.7 4.656 4.656 0 0 0 .5.6 3.992 3.992 0 0 0 5.649 0zM268.625 310.693a4.293 4.293 0 0 0-.5-.61 3.647 3.647 0 0 0-.611-.49 3.225 3.225 0 0 0-.689-.37 3.884 3.884 0 0 0-.74-.23 4.151 4.151 0 0 0-1.571 0 4.215 4.215 0 0 0-.75.23 3.82 3.82 0 0 0-.689.37 4.073 4.073 0 0 0-.6.49 3.7 3.7 0 0 0-.5.61 3.958 3.958 0 0 0-.37.69 4.382 4.382 0 0 0-.229.75 4.129 4.129 0 0 0-.08.78 4 4 0 0 0 1.179 2.83 4.142 4.142 0 0 0 .6.5 4.569 4.569 0 0 0 .689.37 5.371 5.371 0 0 0 .75.23 4.156 4.156 0 0 0 .791.07 3.983 3.983 0 0 0 2.82-1.17 3.8 3.8 0 0 0 .5-.61 4.3 4.3 0 0 0 .37-.69 4.558 4.558 0 0 0 .229-.75 4.047 4.047 0 0 0 .081-.78 4.131 4.131 0 0 0-.081-.78 5.234 5.234 0 0 0-.229-.75A4.767 4.767 0 0 0 268.625 310.693zM214.484 11.306H177.357a4 4 0 0 0-4 4v33.68a4 4 0 0 0 8 0V45.659l35.556-27.175a4 4 0 0 0-2.429-7.178zM181.357 35.59V19.306h21.306z" class="color1b2a45 svgShape"></path><path fill="#34435e" d="M185,162.628a4,4,0,0,0-4-4H153.71v-6.463a10.259,10.259,0,0,0-10.248-10.248H130.278a10.26,10.26,0,0,0-10.249,10.248v.464H102.348v-.464A10.259,10.259,0,0,0,92.1,141.917H72.668a4,4,0,0,0-4,4v18.77a10.82,10.82,0,0,0,5.927,9.636v34.635a4,4,0,0,0,8,0V175.5h57.188v42.662a4,4,0,0,0,8,0V174.323a10.84,10.84,0,0,0,5.743-7.7H181A4,4,0,0,0,185,162.628Zm-39.291,2.059a2.821,2.821,0,0,1-2.817,2.817H79.485a2.82,2.82,0,0,1-2.817-2.817v-14.77H92.1a2.25,2.25,0,0,1,2.248,2.248v4.464a4,4,0,0,0,4,4h25.681a4,4,0,0,0,4-4v-4.464a2.251,2.251,0,0,1,2.249-2.248h13.184a2.25,2.25,0,0,1,2.248,2.248Z" class="color1b2a45 svgShape"></path></svg></g></svg>