<?xml version="1.0" encoding="utf-8"?>
<svg viewBox="244.58 170.649 60 34.002" xmlns="http://www.w3.org/2000/svg">
  <rect x="4.757" y="29" transform="matrix(0.7071, -0.7071, 0.7071, 0.7071, 224.003143, 170.80069)" width="8.485" height="2" style="fill: rgb(207, 175, 140);"/>
  <rect x="7.379" y="34.5" transform="matrix(0.7071, -0.7071, 0.7071, 0.7071, 220.260544, 172.765091)" width="4.243" height="2" style="fill: rgb(207, 175, 140);"/>
  <rect x="12.586" y="30" transform="matrix(0.7071, -0.7071, 0.7071, 0.7071, 224.760544, 174.629089)" width="2.828" height="2" style="fill: rgb(207, 175, 140);"/>
  <path d="M58,17H48c-2.206,0-4,1.794-4,4v10h-1.184c-0.302-0.847-0.969-1.514-1.816-1.816v-8.369c1.161-0.414,2-1.514,2-2.816  c0-1.654-1.346-3-3-3c-1.302,0-2.402,0.839-2.816,2h-2.369c-0.414-1.161-1.514-2-2.816-2s-2.402,0.839-2.816,2h-2.369  c-0.414-1.161-1.514-2-2.816-2c-1.654,0-3,1.346-3,3c0,1.302,0.839,2.402,2,2.816v8.369c-0.847,0.302-1.514,0.969-1.816,1.816H20V21  c0-2.206-1.794-4-4-4H6c-2.206,0-4,1.794-4,4v22c0,2.206,1.794,4,4,4h10c2.206,0,4-1.794,4-4V33h1.184  c0.302,0.847,0.969,1.514,1.816,1.816v8.369c-1.161,0.414-2,1.514-2,2.816c0,1.654,1.346,3,3,3c1.302,0,2.402-0.839,2.816-2h2.369  c0.414,1.161,1.514,2,2.816,2s2.402-0.839,2.816-2h2.369c0.414,1.161,1.514,2,2.816,2c1.654,0,3-1.346,3-3  c0-1.302-0.839-2.402-2-2.816v-8.369c0.847-0.302,1.514-0.969,1.816-1.816H44v10c0,2.206,1.794,4,4,4h10c2.206,0,4-1.794,4-4V21  C62,18.794,60.206,17,58,17z M6,19h10c1.103,0,2,0.897,2,2v1H4v-1C4,19.897,4.897,19,6,19z M18,24v16H4V24H18z M16,45H6  c-1.103,0-2-0.897-2-2v-1h14v1C18,44.103,17.103,45,16,45z M37.184,45h-2.369c-0.142-0.398-0.359-0.758-0.645-1.059L39,35.088v8.096  C38.153,43.486,37.486,44.153,37.184,45z M32,43c-0.132,0-0.258,0.022-0.385,0.039l-5.117-9.382  c0.134-0.202,0.236-0.425,0.318-0.657h10.369c0.083,0.232,0.184,0.455,0.318,0.657l-5.117,9.382C32.258,43.022,32.132,43,32,43z   M25,43.184v-8.096l4.829,8.853c-0.285,0.301-0.503,0.661-0.645,1.059h-2.369C26.514,44.153,25.847,43.486,25,43.184z M26.816,19  h2.369c0.142,0.398,0.359,0.758,0.645,1.059L25,28.912v-8.096C25.847,20.514,26.514,19.847,26.816,19z M32,21  c0.132,0,0.258-0.022,0.385-0.039l5.117,9.382c-0.134,0.202-0.236,0.425-0.318,0.657H26.816c-0.083-0.232-0.184-0.455-0.318-0.657  l5.117-9.382C31.742,20.978,31.868,21,32,21z M39,20.816v8.096l-4.829-8.853c0.285-0.301,0.503-0.661,0.645-1.059h2.369  C37.486,19.847,38.153,20.514,39,20.816z M40,17c0.551,0,1,0.448,1,1s-0.449,1-1,1s-1-0.448-1-1S39.449,17,40,17z M32,17  c0.551,0,1,0.448,1,1s-0.449,1-1,1s-1-0.448-1-1S31.449,17,32,17z M24,17c0.551,0,1,0.448,1,1s-0.449,1-1,1s-1-0.448-1-1  S23.449,17,24,17z M24,31c0.551,0,1,0.448,1,1s-0.449,1-1,1s-1-0.448-1-1S23.449,31,24,31z M24,47c-0.551,0-1-0.448-1-1s0.449-1,1-1  s1,0.448,1,1S24.551,47,24,47z M32,47c-0.551,0-1-0.448-1-1s0.449-1,1-1s1,0.448,1,1S32.551,47,32,47z M40,47c-0.551,0-1-0.448-1-1  s0.449-1,1-1s1,0.448,1,1S40.551,47,40,47z M40,33c-0.551,0-1-0.448-1-1s0.449-1,1-1s1,0.448,1,1S40.551,33,40,33z M48,19h10  c1.103,0,2,0.897,2,2v1H46v-1C46,19.897,46.897,19,48,19z M60,24v16H46V24H60z M58,45H48c-1.103,0-2-0.897-2-2v-1h14v1  C60,44.103,59.103,45,58,45z" transform="matrix(1, 0, 0, 1, 242.580338, 155.649887)" style="fill: rgb(106, 159, 181); stroke: rgb(231, 217, 200);"/>
  <rect x="46.757" y="29" transform="matrix(0.7071, -0.7071, 0.7071, 0.7071, 236.304733, 200.499084)" width="8.485" height="2" style="fill: rgb(183, 123, 147);"/>
  <rect x="49.379" y="34.5" transform="matrix(0.7071, -0.7071, 0.7071, 0.7071, 232.562042, 202.463593)" width="4.243" height="2" style="fill: rgb(183, 123, 147);"/>
  <rect x="54.586" y="30" transform="matrix(0.7071, -0.7071, 0.7071, 0.7071, 237.062042, 204.327591)" width="2.828" height="2" style="fill: rgb(183, 123, 147);"/>
</svg>