<svg xmlns="http://www.w3.org/2000/svg" data-name="Layer 3" viewBox="0 0 64 64"><rect width="16" height="2" x="24" y="13"/><path d="M49.511,39.9A3.987,3.987,0,0,0,45.867,34,3.805,3.805,0,0,0,46,33a4,4,0,0,0-4-4,3.946,3.946,0,0,0-1.414.263,3.991,3.991,0,1,0-6.7,4.237,3.987,3.987,0,0,0,.473,5.5,3.995,3.995,0,0,0,0,6A3.99,3.99,0,0,0,33,48a3.886,3.886,0,0,0,.3,1.5,3.841,3.841,0,0,0,0,3A3.886,3.886,0,0,0,33,54a4,4,0,0,0,4,4,3.261,3.261,0,0,0,.349-.019,3.967,3.967,0,0,0,6.237-1.244A3.946,3.946,0,0,0,45,57a4,4,0,0,0,4-4,3.946,3.946,0,0,0-.263-1.414A3.974,3.974,0,0,0,50.116,45.5a3.973,3.973,0,0,0-.6-5.6ZM48.1,46.332a1.988,1.988,0,0,1-.966,3.651,1,1,0,0,0-.663,1.677A1.969,1.969,0,0,1,47,53a2,2,0,0,1-2,2,1.969,1.969,0,0,1-1.34-.533,1,1,0,0,0-1.677.663,1.982,1.982,0,0,1-3.514,1.141,1,1,0,0,0-.769-.361.986.986,0,0,0-.221.025A2.207,2.207,0,0,1,37,56a2,2,0,0,1-2-2,1.939,1.939,0,0,1,.281-.992,1,1,0,0,0,0-1.016,1.892,1.892,0,0,1,0-1.984,1,1,0,0,0,0-1.016A1.939,1.939,0,0,1,35,48a2,2,0,0,1,2-2,1,1,0,0,0,0-2,2,2,0,0,1,0-4,1,1,0,0,0,0-2,2,2,0,0,1-1.1-3.668,1,1,0,0,0,0-1.664,2,2,0,1,1,3.079-1.8,1,1,0,0,0,1.677.663A1.969,1.969,0,0,1,42,31a2,2,0,0,1,2,2,1.932,1.932,0,0,1-.27.976,1,1,0,0,0,.337,1.34,1.947,1.947,0,0,1,.464.414,1,1,0,0,0,.99.335A2.207,2.207,0,0,1,46,36a2,2,0,0,1,2,2,1.978,1.978,0,0,1-.645,1.453,1,1,0,0,0,.325,1.674,1.99,1.99,0,0,1,.416,3.541,1,1,0,0,0,0,1.664Z"/><path d="M42 40a1 1 0 0 1-1-1H39a3 3 0 0 0 1.846 2.768A2 2 0 0 1 39 43v2a4 4 0 0 0 3.906-3.155A2.994 2.994 0 0 0 45 39H43A1 1 0 0 1 42 40zM40 48v2a2 2 0 0 1 2 2h2A4 4 0 0 0 40 48zM27 27a4 4 0 0 0-3.586 2.263A3.946 3.946 0 0 0 22 29a4 4 0 0 0-4 4 3.805 3.805 0 0 0 .133 1 3.987 3.987 0 0 0-3.644 5.9 3.973 3.973 0 0 0-.605 5.6 3.974 3.974 0 0 0 1.379 6.086A3.946 3.946 0 0 0 15 53a4 4 0 0 0 4 4 3.946 3.946 0 0 0 1.414-.263 3.967 3.967 0 0 0 6.237 1.244A3.261 3.261 0 0 0 27 58a4 4 0 0 0 4-4 3.886 3.886 0 0 0-.3-1.5 3.841 3.841 0 0 0 0-3A3.886 3.886 0 0 0 31 48a3.99 3.99 0 0 0-1.357-3 3.995 3.995 0 0 0 0-6 3.987 3.987 0 0 0 .473-5.5A3.994 3.994 0 0 0 27 27zm1.1 7.332A2 2 0 0 1 27 38a1 1 0 0 0 0 2 2 2 0 0 1 0 4 1 1 0 0 0 0 2 2 2 0 0 1 2 2 1.939 1.939 0 0 1-.281.992 1 1 0 0 0 0 1.016 1.892 1.892 0 0 1 0 1.984 1 1 0 0 0 0 1.016A1.939 1.939 0 0 1 29 54a2 2 0 0 1-2 2 2.207 2.207 0 0 1-.479-.065 1 1 0 0 0-.99.336 1.982 1.982 0 0 1-3.514-1.141 1 1 0 0 0-.629-.859.987.987 0 0 0-.368-.071 1 1 0 0 0-.68.267A1.969 1.969 0 0 1 19 55a2 2 0 0 1-2-2 1.976 1.976 0 0 1 .534-1.342 1 1 0 0 0-.664-1.676 1.987 1.987 0 0 1-.966-3.65 1 1 0 0 0 0-1.664 1.99 1.99 0 0 1 .416-3.541 1 1 0 0 0 .325-1.674A1.978 1.978 0 0 1 16 38a2 2 0 0 1 2-2 2.207 2.207 0 0 1 .479.065 1 1 0 0 0 .99-.335 1.947 1.947 0 0 1 .464-.414 1 1 0 0 0 .337-1.34A1.932 1.932 0 0 1 20 33a2 2 0 0 1 2-2 1.976 1.976 0 0 1 1.342.534 1 1 0 0 0 1.676-.664 1.993 1.993 0 1 1 3.078 1.8 1 1 0 0 0 0 1.664z"/><path d="M25 39H23a1 1 0 0 1-2 0H19a2.994 2.994 0 0 0 2.094 2.845A4 4 0 0 0 25 45V43a2 2 0 0 1-1.846-1.232A3 3 0 0 0 25 39zM20 52h2a2 2 0 0 1 2-2V48A4 4 0 0 0 20 52z"/><rect width="34" height="2" x="15" y="17"/><rect width="34" height="2" x="15" y="21"/><path d="M43.707,3.293A1,1,0,0,0,43,3H20.816a2.982,2.982,0,0,0-5.632,0H13A4,4,0,0,0,9,7V59a4,4,0,0,0,4,4H51a4,4,0,0,0,4-4V15a1,1,0,0,0-.293-.707ZM44,6.414,51.586,14H46a2,2,0,0,1-2-2ZM17,4a1,1,0,0,1,2,0V9a1,1,0,0,1-2,0ZM51,61H13a2,2,0,0,1-2-2V7a2,2,0,0,1,2-2h2V9a3,3,0,0,0,6,0V5H42v7a4,4,0,0,0,4,4h7V59A2,2,0,0,1,51,61Z"/></svg>