<?xml version="1.0" encoding="utf-8"?>
<svg viewBox="218.572 69.102 46 62.002" xmlns="http://www.w3.org/2000/svg">
  <defs>
    <linearGradient gradientUnits="userSpaceOnUse" x1="251.571" y1="95.1" x2="251.571" y2="127.105" id="gradient-0" gradientTransform="matrix(0.987314, 0.158781, -0.093769, 0.535306, 15.109796, 19.120254)">
      <stop offset="0" style="stop-color: rgba(106, 159, 181, 1)"/>
      <stop offset="1" style="stop-color: rgba(61, 105, 124, 1)"/>
    </linearGradient>
    <linearGradient gradientUnits="userSpaceOnUse" x1="238.571" y1="95.104" x2="238.571" y2="127.105" id="gradient-1">
      <stop offset="0" style="stop-color: rgba(230, 184, 197, 1)"/>
      <stop offset="1" style="stop-color: rgba(203, 109, 136, 1)"/>
    </linearGradient>
  </defs>
  <rect width="16" height="2" x="233.572" y="81.104" style="fill: rgb(95, 115, 149);"/>
  <path d="M 259.083 108.004 C 260.558 105.312 258.565 102.034 255.497 102.102 C 255.478 102.103 255.458 102.103 255.439 102.104 C 255.527 101.778 255.572 101.442 255.572 101.104 C 255.572 98.895 253.781 97.104 251.572 97.104 C 251.088 97.104 250.609 97.193 250.158 97.367 C 248.83 94.596 245.001 94.301 243.266 96.836 C 242.268 98.293 242.346 100.232 243.458 101.604 C 242.116 103.268 242.324 105.694 243.931 107.104 C 242.122 108.695 242.122 111.513 243.931 113.104 C 243.067 113.862 242.572 114.955 242.572 116.104 C 242.571 116.619 242.673 117.129 242.872 117.604 C 242.465 118.563 242.465 119.645 242.872 120.604 C 242.673 121.079 242.571 121.589 242.572 122.104 C 242.572 124.313 244.363 126.104 246.572 126.104 C 246.688 126.104 246.805 126.098 246.921 126.085 C 248.893 127.861 252.018 127.237 253.158 124.841 C 253.609 125.015 254.088 125.104 254.572 125.104 C 256.781 125.104 258.572 123.313 258.572 121.104 C 258.572 120.621 258.482 120.141 258.309 119.69 C 260.628 118.584 261.303 115.602 259.688 113.604 C 261.074 111.894 260.805 109.382 259.088 108.004 Z M 257.672 114.436 C 258.955 115.27 258.853 117.181 257.489 117.874 C 257.245 117.998 256.979 118.071 256.706 118.087 C 255.938 118.141 255.517 119.007 255.948 119.644 C 255.976 119.687 256.008 119.727 256.043 119.764 C 256.382 120.128 256.571 120.607 256.572 121.104 C 256.572 122.209 255.676 123.104 254.572 123.104 C 254.074 123.102 253.595 122.912 253.232 122.571 C 252.667 122.048 251.748 122.332 251.577 123.083 C 251.566 123.133 251.558 123.183 251.555 123.234 C 251.468 124.757 249.765 125.616 248.489 124.779 C 248.32 124.668 248.169 124.532 248.041 124.375 C 247.851 124.146 247.569 124.014 247.272 124.014 C 247.197 124.014 247.123 124.022 247.051 124.039 C 246.894 124.078 246.733 124.1 246.572 124.104 C 245.467 124.104 244.572 123.209 244.572 122.104 C 244.574 121.754 244.671 121.411 244.853 121.112 C 245.038 120.799 245.038 120.409 244.853 120.096 C 244.478 119.488 244.478 118.72 244.853 118.112 C 245.038 117.799 245.038 117.409 244.853 117.096 C 244.671 116.797 244.574 116.454 244.572 116.104 C 244.572 114.999 245.467 114.104 246.572 114.104 C 247.342 114.104 247.823 113.271 247.438 112.604 C 247.259 112.295 246.929 112.104 246.572 112.104 C 245.032 112.104 244.07 110.437 244.84 109.104 C 245.197 108.485 245.857 108.104 246.572 108.104 C 247.342 108.104 247.823 107.271 247.438 106.604 C 247.259 106.295 246.929 106.104 246.572 106.104 C 245.032 106.101 244.073 104.433 244.845 103.101 C 245 102.834 245.214 102.606 245.472 102.436 C 246.065 102.04 246.065 101.168 245.472 100.772 C 244.177 99.939 244.27 98.016 245.639 97.312 C 246.924 96.651 248.465 97.529 248.551 98.972 C 248.605 99.74 249.47 100.161 250.108 99.73 C 250.15 99.701 250.19 99.67 250.228 99.635 C 250.592 99.294 251.073 99.104 251.572 99.104 C 252.676 99.104 253.572 99.999 253.572 101.104 C 253.57 101.448 253.477 101.784 253.302 102.08 C 253.038 102.545 253.186 103.135 253.639 103.42 C 253.815 103.532 253.971 103.672 254.103 103.834 C 254.344 104.123 254.726 104.252 255.093 104.169 C 255.25 104.13 255.41 104.108 255.572 104.104 C 256.676 104.104 257.572 104.999 257.572 106.104 C 257.569 106.657 257.336 107.184 256.927 107.557 C 256.376 108.061 256.552 108.969 257.252 109.231 C 258.694 109.747 259.037 111.631 257.869 112.622 C 257.805 112.676 257.738 112.726 257.668 112.772 C 257.074 113.168 257.074 114.04 257.668 114.436 Z" style="fill-rule: nonzero; fill: url(#gradient-0);"/>
  <path d="M 251.572 108.104 C 251.02 108.104 250.572 107.656 250.572 107.104 L 248.572 107.104 C 248.572 108.315 249.3 109.406 250.418 109.872 C 250.108 110.618 249.379 111.104 248.572 111.104 L 248.572 113.104 C 250.454 113.102 252.08 111.789 252.478 109.949 C 253.721 109.557 254.567 108.407 254.572 107.104 L 252.572 107.104 C 252.572 107.656 252.124 108.104 251.572 108.104 Z M 249.572 116.104 L 249.572 118.104 C 250.676 118.104 251.572 118.999 251.572 120.104 L 253.572 120.104 C 253.572 117.895 251.781 116.104 249.572 116.104 Z M 236.572 95.104 C 235.042 95.111 233.65 95.989 232.986 97.367 C 232.535 97.193 232.055 97.104 231.572 97.104 C 229.363 97.104 227.572 98.895 227.572 101.104 C 227.572 101.442 227.616 101.778 227.705 102.104 C 224.638 101.991 222.598 105.24 224.033 107.953 C 224.042 107.97 224.051 107.987 224.061 108.004 C 222.342 109.38 222.071 111.892 223.456 113.604 C 221.84 115.602 222.516 118.584 224.835 119.69 C 224.661 120.141 224.572 120.621 224.572 121.104 C 224.572 123.313 226.363 125.104 228.572 125.104 C 229.055 125.104 229.535 125.015 229.986 124.841 C 231.126 127.237 234.251 127.861 236.223 126.085 C 236.339 126.098 236.455 126.104 236.572 126.104 C 238.781 126.104 240.572 124.313 240.572 122.104 C 240.572 121.589 240.47 121.079 240.272 120.604 C 240.678 119.645 240.678 118.563 240.272 117.604 C 240.47 117.129 240.572 116.619 240.572 116.104 C 240.572 114.955 240.078 113.862 239.215 113.104 C 241.024 111.513 241.024 108.695 239.215 107.104 C 240.821 105.694 241.03 103.268 239.688 101.604 C 241.617 99.21 240.231 95.625 237.193 95.152 C 236.988 95.12 236.78 95.104 236.572 95.104 Z M 237.672 102.436 C 238.956 103.285 238.839 105.206 237.461 105.894 C 237.185 106.031 236.88 106.103 236.572 106.104 C 235.802 106.104 235.321 106.937 235.706 107.604 C 235.884 107.913 236.215 108.104 236.572 108.104 C 238.111 108.104 239.074 109.771 238.304 111.104 C 237.947 111.723 237.286 112.104 236.572 112.104 C 235.802 112.104 235.321 112.937 235.706 113.604 C 235.884 113.913 236.215 114.104 236.572 114.104 C 237.676 114.104 238.572 114.999 238.572 116.104 C 238.569 116.454 238.472 116.797 238.291 117.096 C 238.106 117.409 238.106 117.799 238.291 118.112 C 238.665 118.72 238.665 119.488 238.291 120.096 C 238.106 120.409 238.106 120.799 238.291 121.112 C 238.472 121.411 238.569 121.754 238.572 122.104 C 238.572 123.209 237.676 124.104 236.572 124.104 C 236.41 124.1 236.25 124.078 236.093 124.039 C 235.726 123.956 235.343 124.086 235.103 124.375 C 234.138 125.557 232.255 125.251 231.714 123.824 C 231.643 123.635 231.6 123.436 231.589 123.234 C 231.562 122.851 231.317 122.517 230.96 122.375 C 230.843 122.328 230.718 122.304 230.592 122.304 C 230.34 122.304 230.097 122.399 229.912 122.571 C 229.549 122.912 229.07 123.102 228.572 123.104 C 227.467 123.104 226.572 122.209 226.572 121.104 C 226.574 120.605 226.765 120.126 227.106 119.762 C 227.628 119.197 227.342 118.278 226.591 118.108 C 226.542 118.097 226.492 118.09 226.442 118.086 C 224.915 117.997 224.057 116.288 224.898 115.01 C 225.049 114.781 225.246 114.585 225.476 114.436 C 226.069 114.04 226.069 113.168 225.476 112.772 C 224.192 111.936 224.295 110.024 225.661 109.33 C 225.736 109.292 225.813 109.259 225.892 109.231 C 226.591 108.969 226.767 108.061 226.217 107.557 C 225.808 107.184 225.574 106.657 225.572 106.104 C 225.572 104.999 226.467 104.104 227.572 104.104 C 227.733 104.108 227.894 104.13 228.051 104.169 C 228.418 104.252 228.8 104.123 229.041 103.834 C 229.172 103.672 229.329 103.532 229.505 103.42 C 229.957 103.135 230.106 102.545 229.842 102.08 C 229.667 101.784 229.573 101.448 229.572 101.104 C 229.572 99.999 230.467 99.104 231.572 99.104 C 232.07 99.106 232.55 99.297 232.914 99.638 C 233.479 100.16 234.398 99.875 234.568 99.124 C 234.579 99.074 234.586 99.024 234.59 98.974 C 234.691 97.443 236.411 96.595 237.686 97.448 C 238.874 98.243 238.865 99.993 237.668 100.774 C 237.074 101.17 237.074 102.042 237.668 102.438 Z" style="fill-opacity: 0.8; fill: url(#gradient-1);"/>
  <path d="M 234.572 107.104 L 232.572 107.104 C 232.572 107.874 231.738 108.355 231.072 107.97 C 230.762 107.791 230.572 107.461 230.572 107.104 L 228.572 107.104 C 228.576 108.407 229.423 109.557 230.666 109.949 C 231.063 111.789 232.69 113.102 234.572 113.104 L 234.572 111.104 C 233.764 111.104 233.036 110.618 232.726 109.872 C 233.843 109.406 234.571 108.315 234.572 107.104 Z M 229.572 120.104 L 231.572 120.104 C 231.572 118.999 232.467 118.104 233.572 118.104 L 233.572 116.104 C 231.363 116.104 229.572 117.895 229.572 120.104 Z" style="fill: rgb(106, 159, 181);"/>
  <rect width="34" height="2" x="224.572" y="85.104" style="fill: rgb(95, 115, 149);"/>
  <rect width="34" height="2" x="224.572" y="89.104" style="fill: rgb(95, 115, 149);"/>
  <path d="M 253.279 71.397 C 253.091 71.209 252.837 71.104 252.572 71.104 L 230.388 71.104 C 229.633 68.936 226.814 68.399 225.314 70.137 C 225.069 70.421 224.879 70.749 224.756 71.104 L 222.572 71.104 C 220.363 71.104 218.572 72.895 218.572 75.104 L 218.572 127.104 C 218.572 129.313 220.363 131.104 222.572 131.104 L 260.572 131.104 C 262.781 131.104 264.572 129.313 264.572 127.104 L 264.572 83.104 C 264.572 82.839 264.466 82.584 264.279 82.397 Z M 253.572 74.518 L 261.158 82.104 L 255.572 82.104 C 254.467 82.104 253.572 81.209 253.572 80.104 Z M 226.572 72.104 C 226.572 71.334 227.405 70.853 228.072 71.238 C 228.381 71.417 228.572 71.747 228.572 72.104 L 228.572 77.104 C 228.572 77.874 227.738 78.355 227.072 77.97 C 226.762 77.791 226.572 77.461 226.572 77.104 Z M 260.572 129.104 L 222.572 129.104 C 221.467 129.104 220.572 128.209 220.572 127.104 L 220.572 75.104 C 220.572 73.999 221.467 73.104 222.572 73.104 L 224.572 73.104 L 224.572 77.104 C 224.572 79.413 227.072 80.857 229.072 79.702 C 230 79.166 230.572 78.176 230.572 77.104 L 230.572 73.104 L 251.572 73.104 L 251.572 80.104 C 251.572 82.313 253.363 84.104 255.572 84.104 L 262.572 84.104 L 262.572 127.104 C 262.572 128.209 261.676 129.104 260.572 129.104 Z" style="paint-order: fill; fill: rgb(207, 175, 140);"/>
</svg>