<svg id="SvgjsSvg1001" width="288" height="288" xmlns="http://www.w3.org/2000/svg" version="1.1" xmlns:xlink="http://www.w3.org/1999/xlink" xmlns:svgjs="http://svgjs.com/svgjs"><defs id="SvgjsDefs1002"></defs><g id="SvgjsG1008" transform="matrix(1,0,0,1,0,0)"><svg xmlns="http://www.w3.org/2000/svg" enable-background="new 0 0 64 64" viewBox="0 0 64 64" width="288" height="288"><path d="M31.9 23.4V11.6c0-.6-.4-1-1-1s-1 .4-1 1v11.8c0 .6.4 1 1 1S31.9 24 31.9 23.4zM30.9 9.4c.6 0 1-.4 1-1V7.3c0-.6-.4-1-1-1s-1 .4-1 1v1.1C29.9 9 30.4 9.4 30.9 9.4z" fill="#e6b8c5" class="color000 svgShape"></path><path d="M35.1,38.2v-8.8c1.9-0.7,3.2-2.5,3.2-4.7V7c0-2.8-2.2-5-5-5h-2.7c-2.8,0-5,2.2-5,5v17.8c0,2.1,1.3,3.9,3.2,4.7v8.8H18.5
			v1.1c0,9.3,5,17.9,13,22.5l0.5,0.3l0.5-0.3c8-4.6,13-13.2,13-22.5v-1.1H35.1z M27.6,24.8V7c0-1.7,1.3-3,3-3h2.7c1.7,0,3,1.3,3,3
			v17.8c0,1.7-1.3,3-3,3h-2.7C29,27.8,27.6,26.4,27.6,24.8z M30.9,29.8h2.3v8.5h-2.3V29.8z M32,59.8c-6.9-4.2-11.2-11.6-11.5-19.6
			h9.3h4.3h9.3C43.2,48.3,38.9,55.7,32,59.8z" fill="#e6b8c5" class="color000 svgShape"></path><path d="M25 44.5c.5-.1.9-.6.8-1.1-.1-.4-.1-.8-.1-1.2 0-.6-.5-1-1.1-.9-.5 0-1 .5-.9 1.1 0 .5.1.9.2 1.4.1.5.5.8 1 .8C24.9 44.6 24.9 44.6 25 44.5zM27.1 47.7c-.3-.6-.5-1.2-.7-1.8-.2-.5-.7-.8-1.3-.6-.5.2-.8.7-.6 1.3.2.7.5 1.4.8 2 2.3 5.1 6 8.1 6.2 8.2.2.1.4.2.6.2.3 0 .6-.1.8-.4.3-.4.3-1.1-.2-1.4C32.6 55.2 29.1 52.4 27.1 47.7z" fill="#e6b8c5" class="color000 svgShape"></path></svg></g></svg>